<svg xmlns="http://www.w3.org/2000/svg" xmlns:xlink="http://www.w3.org/1999/xlink" width="24" height="13.105" viewBox="0 0 24 13.105"><defs><clipPath id="a"><rect width="24" height="13.105" transform="translate(0 0)" fill="#b78d00"/></clipPath></defs><g transform="translate(0 0)" clip-path="url(#a)"><path d="M11.993,10.544c.153-.187.23-.3.326-.4q4.854-4.86,9.709-9.719A1.12,1.12,0,0,1,23.253.062a1.082,1.082,0,0,1,.5,1.721c-.079.1-.172.181-.26.27L12.958,12.589a1.146,1.146,0,0,1-1.919,0Q5.737,7.28.433,1.978A1.127,1.127,0,0,1,.059.755,1.08,1.08,0,0,1,1.8.268c.1.081.18.173.268.262q4.82,4.821,9.639,9.644a4.274,4.274,0,0,1,.285.371" transform="translate(0 0)" fill="#b78d00"/></g></svg>