<svg xmlns="http://www.w3.org/2000/svg" xmlns:xlink="http://www.w3.org/1999/xlink" width="48.442" height="24.35" viewBox="0 0 48.442 24.35"><g><path d="M44.633,10.888a3.417,3.417,0,0,1-.459-.33q-4.235-4.233-8.452-8.485a1.986,1.986,0,0,1-.507-.964A.907.907,0,0,1,35.8.124,1.011,1.011,0,0,1,36.91.216a3.872,3.872,0,0,1,.422.379Q42.6,5.867,47.872,11.142c.757.758.759,1.3.008,2.055Q42.546,18.54,37.209,23.881a1.126,1.126,0,0,1-1.634.2,1.051,1.051,0,0,1-.178-1.444,4.629,4.629,0,0,1,.474-.527q4.146-4.155,8.3-8.305c.133-.133.291-.242.438-.362l-.055-.151h-.573q-21.171,0-42.342,0a3.98,3.98,0,0,1-.8-.068,1.068,1.068,0,0,1,.034-2.093,4.061,4.061,0,0,1,.751-.059q21.147,0,42.3,0h.6l.111-.18" transform="translate(0 0)" fill="currentColor"/></g></svg>