<?xml version="1.0" encoding="UTF-8"?><svg id="Layer_2" xmlns="http://www.w3.org/2000/svg" xmlns:xlink="http://www.w3.org/1999/xlink" viewBox="0 0 183.89 72.4"><defs><style>.cls-1,.cls-2,.cls-3,.cls-4{fill:none;}.cls-5{clip-path:url(#clippath);}.cls-6{fill:#e4c381;}.cls-7{fill:#fff;}.cls-8{fill:#f3e784;stroke:#f3e784;}.cls-8,.cls-2,.cls-4{stroke-miterlimit:10;stroke-width:1.94px;}.cls-2{stroke:url(#linear-gradient);}.cls-3{stroke:#dfc17e;stroke-width:.64px;}.cls-4{stroke:#e6cf81;}</style><clipPath id="clippath"><rect class="cls-1" width="59.8" height="69.49"/></clipPath><linearGradient id="linear-gradient" x1="29.98" y1="108.38" x2="29.98" y2="55.9" gradientTransform="translate(0 121.47) scale(1 -1)" gradientUnits="userSpaceOnUse"><stop offset="0" stop-color="#f7ec86"/><stop offset="1" stop-color="#dbbb7c"/></linearGradient></defs><g id="Layer_1-2"><g><path class="cls-6" d="M80.97,70.23c-.1-.3-.23-.6-.39-.91-.14-.32-.34-.74-.58-1.26l-3.48-7.27h-.04l-.35,7.35c-.01,.44,.09,.79,.31,1.06,.22,.26,.62,.4,1.2,.43v.44h-3.58v-.44c.37-.03,.64-.17,.79-.43,.17-.27,.26-.63,.27-1.06l.41-8.99c.03-.45,0-.77-.1-.97-.08-.19-.22-.32-.43-.37-.21-.06-.48-.12-.83-.15v-.44h4.14c.1,.34,.22,.65,.35,.95,.14,.3,.3,.63,.46,.99l3.33,6.96h.04l3.09-6.96c.3-.66,.52-1.3,.68-1.93h4.1v.44c-.24,.01-.45,.05-.62,.12-.17,.06-.29,.2-.37,.41-.06,.19-.09,.52-.08,.97l.41,8.99c.03,.41,.08,.72,.15,.93,.09,.21,.23,.35,.43,.43,.19,.06,.45,.11,.77,.14v.44h-5.51v-.44c.41-.03,.7-.12,.85-.29,.17-.17,.24-.57,.21-1.2l-.33-7.91h-.04l-3.5,7.83c-.24,.54-.43,.97-.54,1.28-.1,.3-.19,.59-.27,.89h-.97Zm11.08-.15v-.44c.37-.03,.64-.12,.81-.29,.17-.17,.25-.57,.25-1.2v-8.99c0-.63-.1-1.03-.29-1.2-.18-.18-.53-.28-1.06-.29v-.44h9.5v2.71h-.44c-.03-.55-.22-1.01-.58-1.35-.35-.35-.89-.52-1.62-.52h-1.55c-.27,0-.48,.07-.64,.21-.14,.14-.21,.44-.21,.89v3.81c.1-.08,.23-.13,.37-.15,.15-.03,.34-.04,.54-.04h1.88c.39,0,.71-.11,.97-.33,.26-.22,.39-.52,.41-.91h.44v3.29h-.44c-.01-.48-.15-.8-.41-.97-.26-.17-.58-.25-.97-.25h-1.84c-.35,0-.59,.06-.73,.17-.14,.12-.21,.34-.21,.68v3.69c0,.45,.1,.75,.29,.89,.21,.14,.6,.21,1.18,.21h1.84c.77,0,1.39-.23,1.84-.7,.45-.46,.7-1.02,.75-1.66h.44l-.15,3.19h-10.35Zm22.7,.29c-.58,0-1.08-.1-1.49-.29-.41-.18-.76-.43-1.04-.73s-.55-.65-.79-1.02l-2.71-4.22c-.13-.22-.24-.35-.35-.41-.1-.05-.23-.08-.37-.1v-.68c.77-.05,1.37-.21,1.8-.46s.72-.57,.89-.95c.17-.39,.25-.79,.25-1.2,0-.79-.22-1.37-.66-1.76-.44-.4-.94-.6-1.51-.6-.43,0-.73,.08-.91,.23-.17,.14-.25,.46-.25,.97v8.99c0,.63,.1,1.03,.29,1.2s.55,.26,1.06,.29v.44h-5.51v-.44c.37-.03,.64-.12,.81-.29,.17-.17,.25-.57,.25-1.2v-8.99c0-.63-.1-1.03-.29-1.2-.18-.18-.53-.28-1.06-.29v-.44h1.35c.97,0,1.84-.01,2.63-.04,.79-.04,1.46-.06,2.01-.06,1.28,0,2.29,.12,3.04,.37,.76,.23,1.3,.56,1.62,.99,.34,.43,.5,.91,.5,1.45s-.13,.99-.39,1.41c-.24,.43-.57,.79-.99,1.08-.4,.28-.84,.48-1.31,.6v.04l3.21,5.03c.37,.59,.72,1,1.02,1.22,.31,.22,.59,.33,.83,.33v.44c-.26,.09-.57,.16-.93,.21-.35,.05-.69,.08-1.02,.08Zm8.36,0c-1.35,0-2.55-.27-3.6-.81-1.04-.54-1.86-1.3-2.46-2.28-.59-.99-.89-2.14-.89-3.44,0-1.07,.19-2.02,.58-2.86,.39-.85,.92-1.58,1.59-2.19,.68-.61,1.46-1.06,2.34-1.37,.89-.32,1.84-.48,2.84-.48,.76,0,1.49,.07,2.19,.21,.7,.14,1.25,.31,1.66,.5v3.06h-.44c-.26-.79-.57-1.39-.93-1.8-.36-.43-.77-.72-1.22-.89-.44-.17-.9-.25-1.39-.25-2.49,0-3.73,1.8-3.73,5.41,0,1.19,.12,2.26,.37,3.23,.26,.97,.65,1.73,1.18,2.3,.54,.55,1.23,.83,2.07,.83,.68,0,1.3-.17,1.86-.5,.55-.35,1.02-.81,1.41-1.37,.4-.57,.68-1.18,.85-1.84h.44l-.15,2.94c-.43,.46-1.02,.85-1.8,1.16-.77,.3-1.7,.44-2.77,.44Zm16.17-2.22c.18,.44,.33,.76,.44,.97,.13,.21,.26,.34,.41,.41,.14,.05,.32,.09,.52,.12v.44h-5.4v-.44c.52-.03,.8-.18,.85-.46,.06-.28,.02-.63-.14-1.02l-.97-2.51c-.08,.06-.18,.11-.31,.14-.12,.01-.24,.02-.39,.02h-2.19c-.27,0-.48,.03-.62,.1-.14,.06-.26,.23-.37,.48l-.7,1.78c-.17,.43-.15,.77,.04,1.04,.19,.27,.57,.42,1.14,.44v.44h-3.52v-.44c.28-.03,.52-.17,.72-.43,.21-.27,.39-.63,.56-1.06l3.71-9.4c.14-.34,.26-.66,.37-.99,.12-.32,.22-.65,.31-.99h1.12c.09,.34,.19,.66,.31,.99,.12,.32,.24,.65,.37,.99l3.71,9.4Zm-5.07-3.19c.18,0,.3-.03,.35-.08,.06-.06,.06-.19-.02-.39l-1.33-3.31h-.04l-1.51,3.85c.06-.04,.14-.06,.23-.06,.09-.01,.19-.02,.31-.02h2.01Zm18.4,5.28c-.19-.21-.39-.41-.6-.6-.21-.21-.53-.51-.99-.91l-7.62-6.96h-.04v6.38c0,.44,.11,.79,.33,1.06,.23,.26,.63,.4,1.18,.43v.44h-3.58v-.44c.37-.03,.64-.17,.81-.43,.17-.27,.25-.63,.25-1.06v-8.99c0-.63-.1-1.03-.29-1.2-.18-.18-.54-.28-1.06-.29v-.44h2.32c.19,.24,.4,.46,.62,.66,.22,.19,.47,.43,.75,.7l7.7,6.96h.04v-6.38c0-.44-.11-.79-.33-1.06-.22-.27-.61-.41-1.18-.43v-.44h3.58v.44c-.37,.01-.64,.15-.81,.43-.17,.27-.25,.63-.25,1.06v10.04c.01,.32,.03,.67,.04,1.04h-.87Zm2.65-13.01h11.02v3.19h-.44c-.08-.7-.28-1.26-.62-1.7-.34-.44-.91-.66-1.72-.66h-1.18v10.09c0,.63,.1,1.03,.29,1.2s.55,.26,1.06,.29v.44h-5.51v-.44c.37-.03,.64-.12,.81-.29,.17-.17,.25-.57,.25-1.2v-10.09h-1.2c-.79,0-1.35,.22-1.7,.66-.34,.44-.54,1.01-.62,1.7h-.44v-3.19Zm12.1,12.86v-.44c.37-.03,.64-.12,.81-.29,.17-.17,.25-.57,.25-1.2v-8.99c0-.63-.1-1.03-.29-1.2-.18-.18-.54-.28-1.06-.29v-.44h5.51v.44c-.37,.01-.64,.11-.81,.29-.17,.17-.25,.57-.25,1.2v8.99c0,.63,.1,1.03,.29,1.2,.19,.17,.55,.26,1.06,.29v.44h-5.51Zm6.8,0v-.44c.37-.03,.64-.12,.81-.29,.17-.17,.25-.57,.25-1.2v-8.99c0-.63-.1-1.03-.29-1.2-.18-.18-.53-.28-1.06-.29v-.44h5.51v.44c-.37,.01-.64,.11-.81,.29-.17,.17-.25,.57-.25,1.2v8.99c0,.45,.1,.75,.29,.89,.21,.14,.6,.21,1.18,.21h1.26c.58,0,1.04-.1,1.37-.31,.34-.22,.58-.51,.73-.87,.15-.36,.25-.75,.29-1.18h.44l-.15,3.19h-9.57Z"/><path class="cls-7" d="M73.49,43.19v-1.24c.97-.04,1.73-.14,2.27-.32,.58-.18,.97-.56,1.19-1.14,.22-.58,.32-1.48,.32-2.7V12.65c0-1.26-.14-2.16-.43-2.7-.25-.58-.74-.96-1.46-1.14-.72-.18-1.8-.29-3.24-.32v-1.24h13.52v1.24c-.97,.04-1.73,.14-2.27,.32-.54,.18-.94,.56-1.19,1.14-.22,.54-.32,1.44-.32,2.7v9.46c.29-.22,.63-.36,1.03-.43,.43-.07,.94-.11,1.51-.11h14.27c.97,0,1.66-.16,2.05-.49,.4-.32,.59-.97,.59-1.95v-6.49c0-1.26-.14-2.16-.43-2.7-.25-.58-.74-.96-1.46-1.14-.72-.18-1.8-.29-3.24-.32v-1.24h13.52v1.24c-.97,.04-1.73,.14-2.27,.32-.54,.18-.94,.56-1.19,1.14-.22,.54-.32,1.44-.32,2.7v25.14c0,1.23,.13,2.13,.38,2.7,.25,.58,.74,.96,1.46,1.14,.76,.18,1.84,.29,3.24,.32v1.24h-13.46v-1.24c.97-.04,1.73-.14,2.27-.32,.58-.18,.97-.56,1.19-1.14,.22-.58,.32-1.48,.32-2.7v-14.87c-.29,.25-.65,.41-1.08,.49-.43,.07-.92,.11-1.46,.11h-14.27c-.97,0-1.66,.16-2.05,.49-.4,.32-.59,.96-.59,1.89v11.89c0,1.23,.13,2.13,.38,2.7,.29,.58,.79,.96,1.51,1.14,.72,.18,1.78,.29,3.19,.32v1.24h-13.46Zm53.83,.81c-3.1,0-5.44-.85-7.03-2.54-1.55-1.73-2.32-4.07-2.32-7.03V12.65c0-1.26-.13-2.16-.38-2.7-.25-.58-.72-.96-1.41-1.14-.65-.18-1.6-.29-2.87-.32v-1.24h13.03v1.24c-.97,.04-1.73,.14-2.27,.32-.54,.18-.94,.56-1.19,1.14-.22,.54-.32,1.44-.32,2.7v20.54c0,2.09,.43,3.84,1.3,5.24,.9,1.37,2.5,2.05,4.81,2.05,1.69,0,3.3-.38,4.81-1.14,1.51-.76,2.85-1.8,4-3.14,1.19-1.37,2.11-2.94,2.76-4.7,.68-1.77,1.03-3.68,1.03-5.73V12.65c0-1.26-.13-2.16-.38-2.7-.25-.58-.76-.96-1.51-1.14-.72-.18-1.78-.29-3.19-.32v-1.24h13.19v1.24c-.97,.04-1.73,.14-2.27,.32-.54,.18-.94,.56-1.19,1.14-.22,.54-.32,1.44-.32,2.7v25.19c0,1.23,.11,2.13,.32,2.7,.25,.54,.67,.9,1.24,1.08,.61,.18,1.44,.29,2.49,.32v1.24h-7.68c-.22-.58-.38-1.26-.49-2.05-.11-.83-.16-1.95-.16-3.35v-4.6h-.11c-1.41,3.39-3.26,6.04-5.57,7.95-2.27,1.91-5.05,2.87-8.33,2.87Zm27-.81v-1.24c.97-.04,1.73-.14,2.27-.32,.58-.18,.97-.56,1.19-1.14,.22-.58,.32-1.48,.32-2.7V12.65c0-1.26-.14-2.16-.43-2.7-.25-.58-.74-.96-1.46-1.14-.72-.18-1.8-.29-3.24-.32v-1.24h5.14c1.77,0,3.21-.02,4.32-.05,1.12-.07,2.14-.13,3.08-.16,.97-.04,2.09-.05,3.35-.05,3.82,0,6.61,.67,8.38,2,1.77,1.3,2.65,3.01,2.65,5.14s-.72,3.95-2.16,5.24c-1.44,1.3-3.21,2.32-5.3,3.08v.11c2.2,.11,4.14,.54,5.84,1.3,1.73,.72,3.1,1.75,4.11,3.08s1.51,2.96,1.51,4.87-.5,3.69-1.51,5.46c-.97,1.73-2.52,3.15-4.65,4.27-2.09,1.12-4.83,1.68-8.22,1.68h-15.19Zm8.38-20c.47-.32,.9-.52,1.3-.59,.43-.11,.94-.18,1.51-.22,1.08-.11,2.16-.27,3.24-.49,1.12-.25,2.13-.65,3.03-1.19,.94-.54,1.69-1.28,2.27-2.22,.58-.97,.87-2.2,.87-3.68,0-1.69-.4-2.96-1.19-3.78-.79-.83-1.78-1.39-2.97-1.68-1.19-.29-2.41-.43-3.68-.43-1.55,0-2.67,.2-3.35,.59-.68,.4-1.03,1.44-1.03,3.14v10.54Zm6.38,18.06c2.56,0,4.54-.47,5.95-1.41,1.44-.94,2.45-2.09,3.03-3.46,.58-1.41,.87-2.79,.87-4.16,0-1.98-.5-3.55-1.51-4.7-.97-1.19-2.31-2.04-4-2.54-1.66-.54-3.53-.81-5.62-.81-1.77,0-3.06,.23-3.89,.7-.79,.43-1.19,1.26-1.19,2.49v10.43c0,1.05,.18,1.82,.54,2.32,.36,.47,.99,.77,1.89,.92,.94,.14,2.25,.22,3.95,.22Z"/><g class="cls-5"><g><path class="cls-2" d="M29.97,65.57v-15.45l.02-37.03"/><path class="cls-8" d="M29.99,13.09c2.5,0,4.52-2.02,4.52-4.52s-2.02-4.52-4.52-4.52-4.52,2.02-4.52,4.52,2.02,4.52,4.52,4.52Z"/><path class="cls-4" d="M10.51,29.67h0c8.9,3.53,15.95,10.58,19.48,19.48h0"/><path class="cls-4" d="M6.47,32.7c2.5,0,4.52-2.02,4.52-4.52s-2.02-4.52-4.52-4.52-4.52,2.02-4.52,4.52,2.02,4.52,4.52,4.52Z"/><path class="cls-4" d="M49.47,29.67h0c-8.9,3.53-15.95,10.58-19.48,19.48h0"/><path class="cls-4" d="M53.52,32.7c-2.5,0-4.52-2.02-4.52-4.52s2.02-4.52,4.52-4.52,4.52,2.02,4.52,4.52-2.02,4.52-4.52,4.52Z"/></g></g><line class="cls-3" x1="20.81" y1="72.08" x2="39.04" y2="72.08"/></g></g></svg>