<svg xmlns="http://www.w3.org/2000/svg" xmlns:xlink="http://www.w3.org/1999/xlink" width="33.697" height="13.035" viewBox="0 0 33.697 13.035"><g transform="translate(0 0)"><path d="M33.7,5.562A2.053,2.053,0,0,1,32.42,7.4,2.058,2.058,0,0,1,30.1,7.057c-.341-.292-.643-.63-.965-.943a6.028,6.028,0,0,0-8.335-.2c-1.735,1.539-3.442,3.111-5.213,4.607A10.336,10.336,0,0,1,1.578,10.06C1.253,9.749.931,9.435.62,9.109A2.169,2.169,0,0,1,3.67,6.024c.347.322.668.67,1.013.993a6.015,6.015,0,0,0,8.155.144c1.787-1.567,3.542-3.171,5.344-4.72a10.366,10.366,0,0,1,13.725.319c.4.379.8.771,1.182,1.167A2.187,2.187,0,0,1,33.7,5.562" transform="translate(0 0)" fill="currentColor"/></g></svg>