<svg width="20" height="19" viewBox="0 0 20 19" fill="none" xmlns="http://www.w3.org/2000/svg">
<path d="M18.625 0.144531H1.375C0.960156 0.144531 0.625 0.479687 0.625 0.894531V18.1445C0.625 18.5594 0.960156 18.8945 1.375 18.8945H18.625C19.0398 18.8945 19.375 18.5594 19.375 18.1445V0.894531C19.375 0.479687 19.0398 0.144531 18.625 0.144531ZM16.4594 5.61719H14.9617C13.7875 5.61719 13.5602 6.175 13.5602 6.99531V8.80234H16.3633L15.9977 11.6312H13.5602V18.8945H10.6375V11.6336H8.19297V8.80234H10.6375V6.71641C10.6375 4.29531 12.1164 2.97578 14.2773 2.97578C15.3133 2.97578 16.2016 3.05313 16.4617 3.08828V5.61719H16.4594Z" fill="#EBD5D1" fill-opacity="0.62"/>
</svg>
