<svg xmlns="http://www.w3.org/2000/svg" width="512" height="512" viewBox="0 0 512 512"><title>ico-whatsapp</title><path d="M240,0h32a28.3654,28.3654,0,0,0,3.8491.8173C315.7116,3.7969,353.0268,15.24,387.026,36.171,453.11,76.855,493.812,135.3755,508.072,211.8853c1.7319,9.2928,2.6387,18.7394,3.928,28.1147v32c-.41,3.2816-.8672,6.5582-1.2231,9.8456-5.4814,50.6352-23.83,96.0576-56.1467,135.4411-40.1871,48.9748-91.6,79.3867-154.0454,90.7486-9.4557,1.72-19.053,2.6625-28.5848,3.9647H240c-6.2486-.7688-12.5115-1.4362-18.7434-2.3226-47.2253-6.7171-89.65-24.715-126.5206-55.031C45.7975,414.4077,15.3217,363.0652,3.979,300.6075,2.26,291.1429,1.3072,281.5393,0,272V240c.4046-3.2792.8492-6.5541,1.2079-9.8383,5.923-54.2281,26.4267-102.1794,62.6023-143.06C103.5885,42.149,153.1328,14.195,212.3935,3.8619,221.542,2.2667,230.7952,1.2723,240,0ZM107.0231,407.3991c2.1152-.4387,3.556-.6722,4.9621-1.039,23.9775-6.254,47.9277-12.6155,71.958-18.659a13.2817,13.2817,0,0,1,8.3942.9766c28.1293,13.8172,57.7071,19.0786,88.7731,15.0963,85.2085-10.9225,144.7859-90.4588,131.7477-175.67-12.856-84.0213-93.1248-141.7221-177.0477-127.27-103.4037,17.8069-158.785,131.1376-109.4229,223.68a12.5266,12.5266,0,0,1,.8652,8.3234C120.7659,357.4328,113.9758,381.9482,107.0231,407.3991Z"/><path d="M143.7579,371.28c3.9638-14.5865,7.5692-28.3667,11.5214-42.0466a10.4607,10.4607,0,0,0-1.3677-9.2925c-46.7961-75.7373-6.6333-172.28,79.9886-192.4469C304.544,111.0467,376.2638,159.8886,387.1377,231.85c10.62,70.2794-36.3645,134.8863-106.5033,145.83-30.2,4.712-58.58-1.342-85.0594-16.6546a11.5866,11.5866,0,0,0-7.7732-1.06C173.42,363.4229,159.1347,367.2805,143.7579,371.28Zm157.6662-45.8784a54.1762,54.1762,0,0,0,7.1556-.494c17.6883-3.5842,30.9917-13.7628,30.392-32.9008-.0581-1.855-1.1243-4.6164-2.5462-5.3412-10.6563-5.4315-21.4909-10.5182-32.3362-15.57-3.1132-1.45-5.6685-.4323-7.801,2.3916-3.6081,4.7781-7.5124,9.3313-11.2277,14.03-2.3107,2.9222-4.9967,3.3464-8.3967,1.992-22.4745-8.9534-39.6061-24.0538-52.0545-44.6971-1.9574-3.2461-1.6243-5.73.7229-8.5487a83.27,83.27,0,0,0,8.5925-11.6158c1.2311-2.1521,1.8876-5.5841,1.0685-7.7949-3.7509-10.1238-8.0093-20.0669-12.349-29.9593a11.0033,11.0033,0,0,0-4.4433-5.0766c-5.11-2.6963-16.4887-.6019-20.6629,3.46-11.9361,11.6153-16.1394,25.67-12.812,41.9235,2.85,13.9226,10.6554,25.321,19.0225,36.3855,16.1691,21.3818,34.9488,39.8033,59.7838,50.9114C275.6435,319.9137,287.8914,325.3322,301.4241,325.4011Z"/></svg>