<svg xmlns="http://www.w3.org/2000/svg" xmlns:xlink="http://www.w3.org/1999/xlink" width="29.36" height="29.363" viewBox="0 0 29.36 29.363"><defs><clipPath id="a"><rect width="29.36" height="29.363" fill="none"/></clipPath></defs><g clip-path="url(#a)"><path d="M0,10.131a10.981,10.981,0,0,1,2.964-7.5A18.166,18.166,0,0,1,4.63,1.022a4.236,4.236,0,0,1,5.75.214c.764.763,1.529,1.528,2.235,2.344a4.194,4.194,0,0,1-1.449,6.458c-.408.184-.81.383-1.223.555a2.4,2.4,0,0,0-1.253,2.712,6.683,6.683,0,0,0,1.366,2.584,19,19,0,0,0,4.191,4,4.09,4.09,0,0,0,2.327.86,2.364,2.364,0,0,0,2.24-1.366c.173-.35.324-.711.477-1.07a4.2,4.2,0,0,1,6.778-1.347c.656.641,1.323,1.272,1.975,1.917a4.288,4.288,0,0,1,.17,5.994,13.167,13.167,0,0,1-4.788,3.6,11.255,11.255,0,0,1-5.772.8A18.229,18.229,0,0,1,8.945,25.62a23,23,0,0,1-7.593-9.3A15.819,15.819,0,0,1,0,10.131m2.282.429c.017.246.026.7.084,1.14a13.8,13.8,0,0,0,1.562,4.725,22.329,22.329,0,0,0,5.813,6.9,17.349,17.349,0,0,0,6.026,3.263,10.376,10.376,0,0,0,5.148.278,9.973,9.973,0,0,0,5.656-3.61,1.948,1.948,0,0,0-.122-2.72c-.636-.635-1.28-1.262-1.938-1.873a1.882,1.882,0,0,0-3.171.692c-.18.42-.355.846-.576,1.245a4.6,4.6,0,0,1-4.008,2.447,5.648,5.648,0,0,1-3.4-1.013A19.431,19.431,0,0,1,7.546,16.3a6.641,6.641,0,0,1-1.2-3.386A4.406,4.406,0,0,1,8.471,8.8a15.434,15.434,0,0,1,1.721-.838A1.882,1.882,0,0,0,10.77,4.95Q9.8,3.914,8.8,2.9a1.945,1.945,0,0,0-2.76-.079c-.377.337-.755.678-1.1,1.046A9.388,9.388,0,0,0,2.284,10.56" transform="translate(0 0)" fill="#1a1818"/><path d="M137.462.006a12.1,12.1,0,0,1,4.116,1.009,13.816,13.816,0,0,1,7.954,9.032,16.527,16.527,0,0,1,.441,2.442,1.143,1.143,0,0,1-2.278.185,11.366,11.366,0,0,0-2.8-6.512,11.209,11.209,0,0,0-6.762-3.753c-.263-.044-.528-.081-.793-.108a1.142,1.142,0,0,1-1.063-1.251A1.136,1.136,0,0,1,137.462.006" transform="translate(-120.622 -0.005)" fill="#1a1818"/><path d="M144.147,49.073a1.129,1.129,0,0,1-1.123-.983,6.9,6.9,0,0,0-2.192-4.108,6.817,6.817,0,0,0-3.607-1.734,1.149,1.149,0,1,1,.3-2.277,9.249,9.249,0,0,1,7.719,7.481,1.226,1.226,0,0,1-.323,1.311,3.959,3.959,0,0,1-.738.381l-.036-.072" transform="translate(-120.539 -35.366)" fill="#1a1818"/><path d="M136.255,82.178a1.147,1.147,0,0,1,1.462-1.227,4.462,4.462,0,0,1,2.89,2.946,1.14,1.14,0,0,1-2.15.751,2.569,2.569,0,0,0-1.52-1.565,1.013,1.013,0,0,1-.683-.905" transform="translate(-120.603 -71.6)" fill="#1a1818"/></g></svg>