<svg xmlns="http://www.w3.org/2000/svg" xmlns:xlink="http://www.w3.org/1999/xlink" width="32.724" height="32.684" viewBox="0 0 32.724 32.684"><defs><clipPath id="a"><rect width="32.724" height="32.684" fill="none"/></clipPath></defs><g clip-path="url(#a)"><path d="M16.352,207.754H1.145C.357,207.754,0,207.4,0,206.6q0-2.393,0-4.786a.974.974,0,0,1,1.081-1.084,3.887,3.887,0,0,1,2.288.77,2.2,2.2,0,0,0,1.98.433,3.9,3.9,0,0,0,.986-.5,4.194,4.194,0,0,1,2.407-.707,4.106,4.106,0,0,1,2.35.783,2.391,2.391,0,0,0,1.256.5,2.24,2.24,0,0,0,1.47-.423,4.243,4.243,0,0,1,2.392-.855,4.032,4.032,0,0,1,2.547.764,2.224,2.224,0,0,0,2.009.44,3.962,3.962,0,0,0,.984-.5,4.187,4.187,0,0,1,2.345-.7,4.084,4.084,0,0,1,2.437.811,2.146,2.146,0,0,0,1.928.395,3.783,3.783,0,0,0,.957-.486,4.1,4.1,0,0,1,2.243-.716.966.966,0,0,1,1.061,1.041q0,2.456,0,4.913a.97.97,0,0,1-1.069,1.065h-15.3M1.927,205.819h28.86v-2.952c-.178.112-.315.207-.46.288a6.565,6.565,0,0,1-.953.507,4.09,4.09,0,0,1-3.751-.422,4.2,4.2,0,0,0-1.012-.519,2.251,2.251,0,0,0-2.035.463,3.991,3.991,0,0,1-2.586.74,4.332,4.332,0,0,1-2.3-.839,2.2,2.2,0,0,0-2.648-.01,5.322,5.322,0,0,1-1.238.643,4.057,4.057,0,0,1-3.6-.487,3.974,3.974,0,0,0-.983-.508,2.388,2.388,0,0,0-2.067.466,4.021,4.021,0,0,1-4.7.005c-.165-.1-.334-.2-.532-.322Z" transform="translate(0 -175.07)" fill="#1a1818"/><path d="M71.923,9.22a9.55,9.55,0,0,1-2.371,6.664c-2.148,2.461-4.322,4.9-6.485,7.348a.962.962,0,0,1-1.546.009c-2.178-2.464-4.367-4.917-6.528-7.4A9.605,9.605,0,1,1,71.755,7.937c.085.469.124.947.167,1.283M62.284,21.2c.056-.052.081-.072.1-.1,1.888-2.136,3.785-4.263,5.66-6.411A7.36,7.36,0,0,0,69.87,8.279a7.685,7.685,0,1,0-13.6,6.085c1.291,1.567,2.675,3.058,4.018,4.582.659.748,1.323,1.494,2,2.258" transform="translate(-45.928 0)" fill="#1a1818"/><path d="M105.728,41.269a3.927,3.927,0,0,1-3.58,3.811,3.867,3.867,0,0,1-4.073-3.191,5.207,5.207,0,0,1,.644-3.158,15.617,15.617,0,0,1,2.4-3.516.913.913,0,0,1,1.386-.074,13.052,13.052,0,0,1,3.02,5,10.5,10.5,0,0,1,.2,1.124m-3.875-3.942c-.245.35-.462.639-.656.942A7.623,7.623,0,0,0,99.972,40.9a1.913,1.913,0,1,0,3.764.009,9.751,9.751,0,0,0-1.883-3.586" transform="translate(-85.493 -30.401)" fill="#1a1818"/></g></svg>