<svg width="180" height="90" viewBox="0 0 180 90" fill="none" xmlns="http://www.w3.org/2000/svg">
<g clip-path="url(#clip0_393_11209)">
<path d="M42.3623 63.1336V52.9877L42.3772 28.6812" stroke="url(#paint0_linear_393_11209)" stroke-width="1.93525" stroke-miterlimit="10"/>
<path d="M42.3774 28.6812C44.0162 28.6812 45.3447 27.3527 45.3447 25.7139C45.3447 24.0752 44.0162 22.7467 42.3774 22.7467C40.7386 22.7467 39.4102 24.0752 39.4102 25.7139C39.4102 27.3527 40.7386 28.6812 42.3774 28.6812Z" fill="#F4E785" stroke="#F4E785" stroke-width="1.93525" stroke-miterlimit="10"/>
<path d="M29.5879 39.5692V39.5692C35.4324 41.8854 40.0604 46.5133 42.3766 52.3579V52.3579" stroke="#E6CF80" stroke-width="1.93525" stroke-miterlimit="10"/>
<path d="M26.9341 41.5589C28.5728 41.5589 29.9013 40.2304 29.9013 38.5917C29.9013 36.9529 28.5728 35.6244 26.9341 35.6244C25.2953 35.6244 23.9668 36.9529 23.9668 38.5917C23.9668 40.2304 25.2953 41.5589 26.9341 41.5589Z" stroke="#E6CF80" stroke-width="1.93525" stroke-miterlimit="10"/>
<path d="M55.166 39.5692V39.5692C49.3215 41.8854 44.6935 46.5133 42.3773 52.3579V52.3579" stroke="#E6CF80" stroke-width="1.93525" stroke-miterlimit="10"/>
<path d="M57.8198 41.5589C56.1811 41.5589 54.8526 40.2304 54.8526 38.5917C54.8526 36.9529 56.1811 35.6244 57.8198 35.6244C59.4586 35.6244 60.7871 36.9529 60.7871 38.5917C60.7871 40.2304 59.4586 41.5589 57.8198 41.5589Z" stroke="#E6CF80" stroke-width="1.93525" stroke-miterlimit="10"/>
</g>
<line x1="36.3516" y1="67.4115" x2="48.3175" y2="67.4115" stroke="#DEC17E" stroke-width="0.635867"/>
<path d="M71.7333 48.699V47.8693C72.3826 47.8452 72.8876 47.7731 73.2484 47.6528C73.6331 47.5326 73.8977 47.2801 74.042 46.8953C74.1863 46.5106 74.2584 45.9093 74.2584 45.0917V28.318C74.2584 27.4763 74.1622 26.8751 73.9698 26.5143C73.8015 26.1296 73.4768 25.877 72.9959 25.7568C72.5149 25.6366 71.7934 25.5644 70.8315 25.5404V24.7107H79.8497V25.5404C79.2003 25.5644 78.6953 25.6366 78.3346 25.7568C77.9739 25.877 77.7093 26.1296 77.541 26.5143C77.3967 26.8751 77.3246 27.4763 77.3246 28.318V34.6307C77.517 34.4864 77.7454 34.3902 78.01 34.3421C78.2985 34.294 78.6352 34.2699 79.02 34.2699H88.5431C89.1924 34.2699 89.6494 34.1617 89.9139 33.9453C90.1784 33.7288 90.3107 33.296 90.3107 32.6467V28.318C90.3107 27.4763 90.2145 26.8751 90.0221 26.5143C89.8538 26.1296 89.5291 25.877 89.0482 25.7568C88.5672 25.6366 87.8457 25.5644 86.8838 25.5404V24.7107H95.9019V25.5404C95.2526 25.5644 94.7476 25.6366 94.3869 25.7568C94.0262 25.877 93.7616 26.1296 93.5933 26.5143C93.449 26.8751 93.3769 27.4763 93.3769 28.318V45.0917C93.3769 45.9093 93.461 46.5106 93.6294 46.8953C93.7977 47.2801 94.1224 47.5326 94.6033 47.6528C95.1083 47.7731 95.8298 47.8452 96.7677 47.8693V48.699H87.7856V47.8693C88.4349 47.8452 88.9399 47.7731 89.3007 47.6528C89.6854 47.5326 89.95 47.2801 90.0943 46.8953C90.2386 46.5106 90.3107 45.9093 90.3107 45.0917V35.1717C90.1183 35.3401 89.8778 35.4483 89.5892 35.4964C89.3007 35.5445 88.976 35.5685 88.6153 35.5685H79.0921C78.4428 35.5685 77.9859 35.6768 77.7214 35.8932C77.4568 36.1096 77.3246 36.5305 77.3246 37.1557V45.0917C77.3246 45.9093 77.4087 46.5106 77.5771 46.8953C77.7695 47.2801 78.1061 47.5326 78.5871 47.6528C79.0681 47.7731 79.7775 47.8452 80.7154 47.8693V48.699H71.7333ZM107.654 49.24C105.586 49.24 104.022 48.6749 102.964 47.5446C101.93 46.3903 101.413 44.8272 101.413 42.8552V28.318C101.413 27.4763 101.329 26.8751 101.161 26.5143C100.992 26.1296 100.68 25.877 100.223 25.7568C99.7899 25.6366 99.1526 25.5644 98.3109 25.5404V24.7107H107.004V25.5404C106.355 25.5644 105.85 25.6366 105.489 25.7568C105.129 25.877 104.864 26.1296 104.696 26.5143C104.551 26.8751 104.479 27.4763 104.479 28.318V42.0255C104.479 43.4203 104.768 44.5867 105.345 45.5246C105.946 46.4384 107.016 46.8953 108.556 46.8953C109.686 46.8953 110.756 46.6428 111.766 46.1378C112.776 45.6328 113.666 44.9354 114.435 44.0456C115.229 43.1318 115.842 42.0856 116.275 40.9073C116.732 39.7289 116.96 38.4543 116.96 37.0836V28.318C116.96 27.4763 116.876 26.8751 116.708 26.5143C116.54 26.1296 116.203 25.877 115.698 25.7568C115.217 25.6366 114.507 25.5644 113.57 25.5404V24.7107H122.371V25.5404C121.722 25.5644 121.217 25.6366 120.856 25.7568C120.496 25.877 120.231 26.1296 120.063 26.5143C119.918 26.8751 119.846 27.4763 119.846 28.318V45.1278C119.846 45.9454 119.918 46.5466 120.063 46.9314C120.231 47.2921 120.508 47.5326 120.892 47.6528C121.301 47.7731 121.854 47.8452 122.552 47.8693V48.699H117.429C117.285 48.3142 117.177 47.8573 117.105 47.3282C117.033 46.7751 116.996 46.0296 116.996 45.0917V42.0255H116.924C115.986 44.2861 114.748 46.0536 113.209 47.3282C111.694 48.6028 109.842 49.24 107.654 49.24ZM125.669 48.699V47.8693C126.318 47.8452 126.823 47.7731 127.184 47.6528C127.569 47.5326 127.833 47.2801 127.977 46.8953C128.122 46.5106 128.194 45.9093 128.194 45.0917V28.318C128.194 27.4763 128.098 26.8751 127.905 26.5143C127.737 26.1296 127.412 25.877 126.931 25.7568C126.45 25.6366 125.729 25.5644 124.767 25.5404V24.7107H128.194C129.372 24.7107 130.334 24.6987 131.08 24.6746C131.825 24.6265 132.511 24.5905 133.136 24.5664C133.785 24.5424 134.531 24.5303 135.372 24.5303C137.921 24.5303 139.785 24.9752 140.964 25.865C142.142 26.7308 142.731 27.8731 142.731 29.2919C142.731 30.7589 142.25 31.9252 141.288 32.791C140.326 33.6567 139.148 34.3421 137.753 34.8471V34.9192C139.22 34.9914 140.519 35.28 141.649 35.785C142.803 36.2659 143.717 36.9513 144.391 37.8411C145.064 38.7309 145.401 39.8131 145.401 41.0876C145.401 42.3382 145.064 43.5526 144.391 44.731C143.741 45.8853 142.707 46.8352 141.288 47.5807C139.893 48.3262 138.066 48.699 135.805 48.699H125.669ZM131.26 35.3521C131.573 35.1357 131.861 35.0034 132.126 34.9553C132.414 34.8832 132.751 34.8351 133.136 34.811C133.857 34.7389 134.579 34.6307 135.3 34.4864C136.046 34.318 136.719 34.0535 137.32 33.6928C137.946 33.332 138.451 32.8391 138.835 32.2138C139.22 31.5645 139.412 30.7468 139.412 29.7609C139.412 28.6306 139.148 27.7889 138.619 27.2358C138.09 26.6827 137.428 26.3099 136.635 26.1175C135.841 25.9251 135.024 25.829 134.182 25.829C133.148 25.829 132.402 25.9612 131.945 26.2257C131.489 26.4903 131.26 27.1877 131.26 28.318V35.3521ZM135.517 47.4003C137.224 47.4003 138.547 47.0877 139.485 46.4625C140.447 45.8372 141.12 45.0676 141.505 44.1538C141.889 43.2159 142.082 42.2901 142.082 41.3762C142.082 40.0536 141.745 39.0075 141.072 38.2379C140.423 37.4443 139.533 36.8792 138.402 36.5425C137.296 36.1818 136.046 36.0014 134.651 36.0014C133.473 36.0014 132.607 36.1577 132.054 36.4704C131.525 36.7589 131.26 37.312 131.26 38.1297V45.0917C131.26 45.7891 131.38 46.3061 131.621 46.6428C131.861 46.9554 132.282 47.1599 132.883 47.256C133.509 47.3522 134.386 47.4003 135.517 47.4003Z" fill="white"/>
<path d="M76.1389 66.4981C76.0695 66.2986 75.9827 66.0948 75.8787 65.8867C75.7833 65.6699 75.6532 65.388 75.4884 65.0411L73.1467 60.1496H73.1207L72.8865 65.0931C72.8779 65.388 72.9473 65.6265 73.0947 65.8086C73.2421 65.9821 73.511 66.0775 73.9013 66.0948V66.394H71.4946V66.0948C71.7461 66.0775 71.9239 65.9821 72.0279 65.8086C72.1407 65.6265 72.2014 65.388 72.2101 65.0931L72.4833 59.0438C72.5006 58.7403 72.4789 58.5235 72.4182 58.3934C72.3662 58.2633 72.2708 58.1809 72.132 58.1462C71.9932 58.1028 71.8068 58.0681 71.5726 58.0421V57.7429H74.3566C74.426 57.9684 74.504 58.1809 74.5908 58.3804C74.6862 58.5798 74.7902 58.801 74.903 59.0438L77.1406 63.7271H77.1666L79.2481 59.0438C79.4475 58.6015 79.5993 58.1679 79.7034 57.7429H82.4613V58.0421C82.2966 58.0508 82.1578 58.0768 82.0451 58.1202C81.9323 58.1635 81.8499 58.2546 81.7979 58.3934C81.7545 58.5235 81.7372 58.7403 81.7458 59.0438L82.019 65.0931C82.0364 65.3706 82.0711 65.5788 82.1231 65.7176C82.1838 65.8563 82.2792 65.9517 82.4093 66.0038C82.5394 66.0471 82.7129 66.0775 82.9297 66.0948V66.394H79.222V66.0948C79.4996 66.0775 79.6904 66.0124 79.7945 65.8997C79.9072 65.7869 79.9549 65.5181 79.9376 65.0931L79.7164 59.7723H79.6904L77.3357 65.0411C77.1709 65.4053 77.0495 65.6915 76.9715 65.8997C76.9021 66.0992 76.8414 66.2986 76.7893 66.4981H76.1389ZM83.5926 66.394V66.0948C83.8442 66.0775 84.0263 66.0124 84.139 65.8997C84.2518 65.7869 84.3082 65.5181 84.3082 65.0931V59.0438C84.3082 58.6189 84.2431 58.35 84.113 58.2373C83.9916 58.1158 83.7531 58.0508 83.3975 58.0421V57.7429H89.785V59.5642H89.4858C89.4685 59.1913 89.3384 58.8877 89.0956 58.6535C88.8614 58.4194 88.4971 58.3023 88.0028 58.3023H86.962C86.7799 58.3023 86.6368 58.35 86.5327 58.4454C86.4373 58.5408 86.3896 58.7403 86.3896 59.0438V61.6066C86.459 61.5546 86.5414 61.5199 86.6368 61.5026C86.7409 61.4852 86.8623 61.4766 87.0011 61.4766H88.263C88.5231 61.4766 88.74 61.4028 88.9134 61.2554C89.0869 61.108 89.1779 60.9041 89.1866 60.644H89.4858V62.8555H89.1866C89.1779 62.5346 89.0869 62.3178 88.9134 62.2051C88.74 62.0923 88.5231 62.0359 88.263 62.0359H87.0271C86.7929 62.0359 86.6281 62.075 86.5327 62.153C86.4373 62.2311 86.3896 62.3829 86.3896 62.6084V65.0931C86.3896 65.3967 86.4547 65.5961 86.5848 65.6915C86.7235 65.7869 86.9881 65.8346 87.3783 65.8346H88.6142C89.1346 65.8346 89.5465 65.6785 89.8501 65.3663C90.1536 65.0541 90.3228 64.6812 90.3574 64.2475H90.6567L90.5526 66.394H83.5926ZM98.864 66.5892C98.4737 66.5892 98.1398 66.5241 97.8623 66.394C97.5847 66.2726 97.3506 66.1078 97.1598 65.8997C96.969 65.6915 96.7912 65.4617 96.6264 65.2102L94.8051 62.3742C94.7184 62.2268 94.6403 62.1357 94.5709 62.101C94.5015 62.0663 94.4191 62.0446 94.3237 62.0359V61.5806C94.8441 61.5459 95.2474 61.4419 95.5336 61.2684C95.8198 61.0949 96.0193 60.8825 96.132 60.631C96.2448 60.3708 96.3011 60.1019 96.3011 59.8244C96.3011 59.2953 96.1537 58.9007 95.8588 58.6405C95.564 58.3717 95.2257 58.2373 94.8441 58.2373C94.5579 58.2373 94.3541 58.2893 94.2327 58.3934C94.1199 58.4888 94.0636 58.7056 94.0636 59.0438V65.0931C94.0636 65.5181 94.1286 65.7869 94.2587 65.8997C94.3888 66.0124 94.6273 66.0775 94.9742 66.0948V66.394H91.2666V66.0948C91.5181 66.0775 91.7002 66.0124 91.813 65.8997C91.9257 65.7869 91.9821 65.5181 91.9821 65.0931V59.0438C91.9821 58.6189 91.917 58.35 91.7869 58.2373C91.6655 58.1158 91.427 58.0508 91.0714 58.0421V57.7429H91.9821C92.6325 57.7429 93.2223 57.7342 93.7513 57.7169C94.2804 57.6909 94.7314 57.6779 95.1043 57.6779C95.9629 57.6779 96.6437 57.7602 97.1467 57.925C97.6584 58.0811 98.0227 58.3023 98.2395 58.5885C98.465 58.8747 98.5778 59.1999 98.5778 59.5642C98.5778 59.9111 98.491 60.2277 98.3176 60.5139C98.1528 60.8001 97.9316 61.0429 97.6541 61.2424C97.3852 61.4332 97.0904 61.5676 96.7695 61.6457V61.6717L98.929 65.0541C99.1805 65.453 99.4104 65.7262 99.6185 65.8737C99.8267 66.0211 100.013 66.0948 100.178 66.0948V66.394C100.004 66.4548 99.7963 66.5025 99.5535 66.5371C99.3193 66.5718 99.0895 66.5892 98.864 66.5892ZM104.487 66.5892C103.577 66.5892 102.77 66.4071 102.068 66.0428C101.365 65.6785 100.814 65.1668 100.416 64.5077C100.017 63.8399 99.8171 63.068 99.8171 62.1921C99.8171 61.4722 99.9472 60.8304 100.207 60.2667C100.468 59.6943 100.823 59.2043 101.274 58.7966C101.734 58.389 102.258 58.0811 102.848 57.873C103.447 57.6562 104.084 57.5478 104.761 57.5478C105.272 57.5478 105.762 57.5955 106.231 57.6909C106.699 57.7863 107.072 57.899 107.349 58.0291V60.0846H107.05C106.877 59.5555 106.669 59.1522 106.426 58.8747C106.183 58.5885 105.91 58.389 105.606 58.2763C105.311 58.1635 104.999 58.1072 104.67 58.1072C102.996 58.1072 102.159 59.3214 102.159 61.7497C102.159 62.5476 102.241 63.2718 102.406 63.9223C102.579 64.5727 102.844 65.0888 103.199 65.4704C103.564 65.8433 104.028 66.0298 104.591 66.0298C105.051 66.0298 105.467 65.917 105.84 65.6915C106.213 65.4574 106.53 65.1495 106.79 64.7679C107.059 64.3863 107.25 63.9743 107.362 63.532H107.662L107.558 65.5094C107.271 65.8216 106.868 66.0818 106.348 66.29C105.827 66.4894 105.207 66.5892 104.487 66.5892ZM115.367 65.0931C115.488 65.388 115.588 65.6048 115.666 65.7436C115.753 65.8823 115.844 65.9734 115.939 66.0168C116.035 66.0515 116.152 66.0775 116.291 66.0948V66.394H112.661V66.0948C113.008 66.0775 113.199 65.9734 113.233 65.7826C113.277 65.5918 113.246 65.362 113.142 65.0931L112.492 63.4019C112.44 63.4453 112.37 63.4756 112.284 63.493C112.206 63.5017 112.119 63.506 112.024 63.506H110.553C110.371 63.506 110.233 63.5277 110.137 63.571C110.042 63.6144 109.959 63.7228 109.89 63.8963L109.422 65.0931C109.309 65.3793 109.318 65.6135 109.448 65.7956C109.578 65.9777 109.834 66.0775 110.215 66.0948V66.394H107.848V66.0948C108.038 66.0775 108.199 65.9821 108.329 65.8086C108.468 65.6265 108.593 65.388 108.706 65.0931L111.204 58.7706C111.299 58.5451 111.382 58.324 111.451 58.1072C111.529 57.8903 111.599 57.6692 111.659 57.4437H112.414C112.475 57.6692 112.544 57.8903 112.622 58.1072C112.7 58.324 112.782 58.5451 112.869 58.7706L115.367 65.0931ZM111.958 62.9466C112.08 62.9466 112.158 62.9292 112.193 62.8946C112.236 62.8512 112.232 62.7645 112.18 62.6344L111.282 60.4098H111.256L110.241 62.9986C110.285 62.9726 110.337 62.9596 110.397 62.9596C110.458 62.9509 110.527 62.9466 110.606 62.9466H111.958ZM124.338 66.4981C124.208 66.3594 124.074 66.2249 123.935 66.0948C123.796 65.9561 123.575 65.7523 123.272 65.4834L118.146 60.8001H118.12V65.0931C118.12 65.388 118.194 65.6265 118.341 65.8086C118.497 65.9821 118.762 66.0775 119.135 66.0948V66.394H116.728V66.0948C116.979 66.0775 117.162 65.9821 117.274 65.8086C117.387 65.6265 117.443 65.388 117.443 65.0931V59.0438C117.443 58.6189 117.378 58.35 117.248 58.2373C117.127 58.1158 116.888 58.0508 116.533 58.0421V57.7429H118.094C118.224 57.9077 118.363 58.0551 118.51 58.1852C118.658 58.3153 118.827 58.4714 119.018 58.6535L124.195 63.3369H124.221V59.0438C124.221 58.7489 124.147 58.5104 124 58.3283C123.853 58.1462 123.588 58.0508 123.206 58.0421V57.7429H125.613V58.0421C125.362 58.0508 125.18 58.1462 125.067 58.3283C124.954 58.5104 124.898 58.7489 124.898 59.0438V65.0931C124.898 65.336 124.898 65.5701 124.898 65.7956C124.906 66.0124 124.915 66.2466 124.924 66.4981H124.338ZM126.122 57.7429H133.537V59.8894H133.238C133.186 59.4211 133.047 59.0395 132.821 58.7446C132.596 58.4497 132.21 58.3023 131.664 58.3023H130.87V65.0931C130.87 65.5181 130.935 65.7869 131.065 65.8997C131.195 66.0124 131.434 66.0775 131.781 66.0948V66.394H128.073V66.0948C128.325 66.0775 128.507 66.0124 128.619 65.8997C128.732 65.7869 128.789 65.5181 128.789 65.0931V58.3023H127.982C127.453 58.3023 127.071 58.4497 126.837 58.7446C126.612 59.0395 126.473 59.4211 126.421 59.8894H126.122V57.7429ZM134.262 66.394V66.0948C134.514 66.0775 134.696 66.0124 134.808 65.8997C134.921 65.7869 134.978 65.5181 134.978 65.0931V59.0438C134.978 58.6189 134.913 58.35 134.782 58.2373C134.661 58.1158 134.423 58.0508 134.067 58.0421V57.7429H137.775V58.0421C137.523 58.0508 137.341 58.1158 137.228 58.2373C137.115 58.35 137.059 58.6189 137.059 59.0438V65.0931C137.059 65.5181 137.124 65.7869 137.254 65.8997C137.384 66.0124 137.623 66.0775 137.97 66.0948V66.394H134.262ZM138.835 66.394V66.0948C139.086 66.0775 139.268 66.0124 139.381 65.8997C139.494 65.7869 139.55 65.5181 139.55 65.0931V59.0438C139.55 58.6189 139.485 58.35 139.355 58.2373C139.234 58.1158 138.995 58.0508 138.64 58.0421V57.7429H142.347V58.0421C142.096 58.0508 141.913 58.1158 141.801 58.2373C141.688 58.35 141.632 58.6189 141.632 59.0438V65.0931C141.632 65.3967 141.697 65.5961 141.827 65.6915C141.966 65.7869 142.23 65.8346 142.62 65.8346H143.466C143.856 65.8346 144.164 65.7653 144.39 65.6265C144.615 65.4791 144.78 65.2839 144.884 65.0411C144.988 64.7982 145.053 64.5337 145.079 64.2475H145.378L145.274 66.394H138.835Z" fill="#E4C482"/>
<path d="M43.3272 65.0625C43.3272 65.6736 43.3829 66.1189 43.4943 66.3982C43.6056 66.6776 43.8045 66.861 44.0908 66.9483C44.3931 67.0356 44.8147 67.088 45.3556 67.1054V67.7078H39.9863V67.1054C40.3363 67.088 40.6147 67.0356 40.8215 66.9483C41.0284 66.861 41.1795 66.6776 41.275 66.3982C41.3704 66.1189 41.4181 65.6736 41.4181 65.0625V59.1432L43.3272 59.117V65.0625Z" fill="#DEC17E"/>
<defs>
<linearGradient id="paint0_linear_393_11209" x1="42.3697" y1="28.6812" x2="42.3697" y2="63.1336" gradientUnits="userSpaceOnUse">
<stop stop-color="#F7EC86"/>
<stop offset="1" stop-color="#DBBB7C"/>
</linearGradient>
<clipPath id="clip0_393_11209">
<rect width="39.2579" height="45.6165" fill="white" transform="translate(22.6875 20.0898)"/>
</clipPath>
</defs>
</svg>
