<svg xmlns="http://www.w3.org/2000/svg" width="23.482" height="18.155" viewBox="0 0 23.482 18.155"><g><path d="M4.973,10.281A5.134,5.134,0,0,1,3.231,5.7a5.088,5.088,0,0,1,1.8-3.389,5.4,5.4,0,0,1,7.3.325,5.314,5.314,0,0,1-.291,7.646c.15.078.295.149.435.228A8.41,8.41,0,0,1,17,17.951a1.034,1.034,0,0,1-1.308,1.119,1,1,0,0,1-.817-1.064,6.093,6.093,0,0,0-1.444-3.986,6.073,6.073,0,0,0-6.542-2.13,6.136,6.136,0,0,0-4.664,5.09,6.342,6.342,0,0,0-.093,1.013A1.01,1.01,0,0,1,1.05,19.088,1.006,1.006,0,0,1,0,17.965a8.3,8.3,0,0,1,.948-3.774,8.668,8.668,0,0,1,3.858-3.822c.05-.025.1-.052.168-.088M8.492,9.53a3.122,3.122,0,0,0,3.195-3.171,3.137,3.137,0,0,0-3.177-3.2A3.139,3.139,0,0,0,5.315,6.342,3.122,3.122,0,0,0,8.492,9.53" transform="translate(0.001 -0.94)"/><path d="M144.533,8.895c.387.309.786.595,1.146.922a10.064,10.064,0,0,1,3.365,6.778c.014.157.032.314.034.471a1.063,1.063,0,0,1-2.126.047,7.815,7.815,0,0,0-.352-2.3,7.452,7.452,0,0,0-3.676-4.412,4.444,4.444,0,0,1-.915-.676,1,1,0,0,1,.214-1.69A3.074,3.074,0,0,0,143.7,5.892,3.136,3.136,0,0,0,140.6,2.117a.991.991,0,0,1-1.022-.673A1.048,1.048,0,0,1,140.66,0a5.277,5.277,0,0,1,4.99,4.053,5.325,5.325,0,0,1-.97,4.653c-.049.066-.1.13-.147.19" transform="translate(-125.597 0)"/></g></svg>