<svg xmlns="http://www.w3.org/2000/svg"><symbol id="active-slide" viewBox="0 0 20 20.057"><path d="m0 10.032 2.448-.587q2.718-.652 5.437-1.3a.239.239 0 0 0 .2-.217Q9 4.091 9.919.257c.015-.065.036-.128.072-.257.036.121.059.185.075.251q.921 3.834 1.837 7.67a.264.264 0 0 0 .233.228q3.837.913 7.671 1.836a.413.413 0 0 1 .192.1l-1.068.261q-3.41.818-6.821 1.632a.24.24 0 0 0-.2.209q-.914 3.836-1.837 7.67a.451.451 0 0 1-.1.2l-.3-1.211q-.8-3.331-1.594-6.662a.252.252 0 0 0-.221-.216q-3.835-.913-7.67-1.836A1.905 1.905 0 0 1 0 10.077v-.045" fill="#4b9eff"/></symbol><symbol id="arrow-faq" viewBox="0 0 24 13.105"><defs><clipPath id="a"><path fill="#b78d00" d="M0 0h24v13.105H0z"/></clipPath></defs><g clip-path="url(#a)"><path d="M11.993 10.544c.153-.187.23-.3.326-.4L22.028.425a1.12 1.12 0 0 1 1.225-.363 1.082 1.082 0 0 1 .5 1.721c-.079.1-.172.181-.26.27L12.958 12.589a1.146 1.146 0 0 1-1.919 0Q5.737 7.28.433 1.978A1.127 1.127 0 0 1 .059.755 1.08 1.08 0 0 1 1.8.268c.1.081.18.173.268.262q4.82 4.821 9.639 9.644a4.274 4.274 0 0 1 .285.371" fill="#b78d00"/></g></symbol><symbol fill="none" id="arrow-slide" viewBox="0 0 39 74"><path d="m1.98 1.979 35.04 35.02L1.98 72.022" stroke="#114526" stroke-width="5.57" stroke-linecap="round" stroke-linejoin="round"/></symbol><symbol id="arrow" viewBox="0 0 48.442 24.35"><path d="M44.633 10.888a3.417 3.417 0 0 1-.459-.33q-4.235-4.233-8.452-8.485a1.986 1.986 0 0 1-.507-.964.907.907 0 0 1 .585-.985 1.011 1.011 0 0 1 1.11.092 3.872 3.872 0 0 1 .422.379l10.54 10.547c.757.758.759 1.3.008 2.055q-5.334 5.343-10.671 10.684a1.126 1.126 0 0 1-1.634.2 1.051 1.051 0 0 1-.178-1.444 4.629 4.629 0 0 1 .474-.527q4.146-4.155 8.3-8.305c.133-.133.291-.242.438-.362l-.055-.151H1.639a3.98 3.98 0 0 1-.8-.068 1.068 1.068 0 0 1 .034-2.093 4.061 4.061 0 0 1 .751-.059h42.9l.111-.18" fill="currentColor"/></symbol><symbol fill="currentColor" id="aspas-depoimentos" viewBox="0 0 66 46"><path d="M0 46V26.8C0 11.9 8.9 3.4 26.6 1.2L29 8.3c-8.9 1.7-13.6 6.3-14.2 13.6h7.4V46H0Zm36.8 0V26.8c0-14.9 8.9-23.4 26.6-25.6l2.4 7.1c-8.9 1.7-13.6 6.3-14.2 13.6H59V46H36.8Z"/></symbol><symbol id="booking-wave" viewBox="0 0 33.697 13.035"><path d="M33.7 5.562A2.053 2.053 0 0 1 32.42 7.4a2.058 2.058 0 0 1-2.32-.343c-.341-.292-.643-.63-.965-.943a6.028 6.028 0 0 0-8.335-.2c-1.735 1.539-3.442 3.111-5.213 4.607a10.336 10.336 0 0 1-14.009-.461 29.62 29.62 0 0 1-.958-.951 2.17 2.17 0 0 1 3.05-3.085c.347.322.668.67 1.013.993a6.015 6.015 0 0 0 8.155.144c1.787-1.567 3.542-3.171 5.344-4.72a10.366 10.366 0 0 1 13.725.319c.4.379.8.771 1.182 1.167a2.187 2.187 0 0 1 .611 1.635" fill="currentColor"/></symbol><symbol class="ionicon" id="close" viewBox="0 0 512 512"><path d="m289.94 256 95-95A24 24 0 0 0 351 127l-95 95-95-95a24 24 0 0 0-34 34l95 95-95 95a24 24 0 1 0 34 34l95-95 95 95a24 24 0 0 0 34-34z"/></symbol><symbol id="ico-address" viewBox="0 0 32.724 32.684"><defs><clipPath id="a"><path fill="none" d="M0 0h32.724v32.684H0z"/></clipPath></defs><g clip-path="url(#a)" fill="#1a1818"><path d="M16.352 32.684H1.145C.357 32.684 0 32.33 0 31.53v-4.786a.974.974 0 0 1 1.081-1.084 3.887 3.887 0 0 1 2.288.77 2.2 2.2 0 0 0 1.98.433 3.9 3.9 0 0 0 .986-.5 4.194 4.194 0 0 1 2.407-.707 4.106 4.106 0 0 1 2.35.783 2.391 2.391 0 0 0 1.256.5 2.24 2.24 0 0 0 1.47-.423 4.243 4.243 0 0 1 2.392-.855 4.032 4.032 0 0 1 2.547.764 2.224 2.224 0 0 0 2.009.44 3.962 3.962 0 0 0 .984-.5 4.187 4.187 0 0 1 2.345-.7 4.084 4.084 0 0 1 2.437.811 2.146 2.146 0 0 0 1.928.395 3.783 3.783 0 0 0 .957-.486 4.1 4.1 0 0 1 2.243-.716.966.966 0 0 1 1.061 1.041v4.913a.97.97 0 0 1-1.069 1.065h-15.3M1.927 30.749h28.86v-2.952c-.178.112-.315.207-.46.288a6.565 6.565 0 0 1-.953.507 4.09 4.09 0 0 1-3.751-.422 4.2 4.2 0 0 0-1.012-.519 2.251 2.251 0 0 0-2.035.463 3.991 3.991 0 0 1-2.586.74 4.332 4.332 0 0 1-2.3-.839 2.2 2.2 0 0 0-2.648-.01 5.322 5.322 0 0 1-1.238.643 4.057 4.057 0 0 1-3.6-.487 3.974 3.974 0 0 0-.983-.508 2.388 2.388 0 0 0-2.067.466 4.021 4.021 0 0 1-4.7.005c-.165-.1-.334-.2-.532-.322ZM25.995 9.22a9.55 9.55 0 0 1-2.371 6.664c-2.148 2.461-4.322 4.9-6.485 7.348a.962.962 0 0 1-1.546.009c-2.178-2.464-4.367-4.917-6.528-7.4a9.605 9.605 0 1 1 16.762-7.904c.085.469.124.947.167 1.283M16.356 21.2c.056-.052.081-.072.1-.1 1.888-2.136 3.785-4.263 5.66-6.411a7.36 7.36 0 0 0 1.826-6.41 7.685 7.685 0 1 0-13.6 6.085c1.291 1.567 2.675 3.058 4.018 4.582.659.748 1.323 1.494 2 2.258"/><path d="M20.235 10.868a3.927 3.927 0 0 1-3.58 3.811 3.867 3.867 0 0 1-4.073-3.191 5.207 5.207 0 0 1 .644-3.158 15.617 15.617 0 0 1 2.4-3.516.913.913 0 0 1 1.386-.074 13.052 13.052 0 0 1 3.02 5 10.5 10.5 0 0 1 .2 1.124m-3.875-3.942c-.245.35-.462.639-.656.942a7.623 7.623 0 0 0-1.222 2.635 1.913 1.913 0 1 0 3.764.009 9.751 9.751 0 0 0-1.883-3.586"/></g></symbol><symbol id="ico-facebook" viewBox="0 0 33.323 33.367"><defs><clipPath id="a"><path fill="none" d="M0 0h33.323v33.367H0z"/></clipPath></defs><g clip-path="url(#a)"><path d="M33.323 16.717v13.751a2.767 2.767 0 0 1-2.085 2.8 3.049 3.049 0 0 1-.8.1q-13.765.007-27.53 0a2.793 2.793 0 0 1-2.907-2.917V2.917a2.793 2.793 0 0 1 2.9-2.916h27.5a2.8 2.8 0 0 1 2.92 2.932v13.783m-2.807 13.845V2.811H2.801V30.56h13.836V19.45h-2.743v-2.774h2.77c0-.988-.014-1.933 0-2.877a6.92 6.92 0 0 1 6.7-6.827c.932-.023 1.865-.01 2.8-.012a1.693 1.693 0 0 1 .2.023v2.743h-.4c-.963.015-1.917-.014-2.863.055a4.11 4.11 0 0 0-3.636 3.843c-.023.944-.011 1.89-.012 2.835a1.824 1.824 0 0 0 .034.239h6.867v2.782h-6.888v11.081Z" fill="#1a1818"/></g></symbol><symbol id="ico-instagram" viewBox="0 0 33.371 33.378"><defs><clipPath id="a"><path fill="none" d="M0 0h33.371v33.378H0z"/></clipPath></defs><g clip-path="url(#a)" fill="#1a1818"><path d="M0 16.692V8.546a8.248 8.248 0 0 1 3.464-6.94A7.89 7.89 0 0 1 8.263.015c5.615-.015 11.23-.025 16.845 0a8.336 8.336 0 0 1 8.1 6.75 8.861 8.861 0 0 1 .153 1.65q.016 8.276.005 16.552a8.371 8.371 0 0 1-5.827 8.014 8.162 8.162 0 0 1-2.529.393H8.361a8.358 8.358 0 0 1-8.2-6.755 9.408 9.408 0 0 1-.152-1.72C-.006 22.165 0 19.429 0 16.692M16.685 2.799c-2.7 0-5.408-.007-8.112.007a6.8 6.8 0 0 0-1.515.15 5.441 5.441 0 0 0-4.25 5.253c-.03 5.647-.018 11.294 0 16.941a5.536 5.536 0 0 0 5.702 5.449c5.451-.032 10.9-.006 16.355-.016a6.388 6.388 0 0 0 1.45-.149 5.441 5.441 0 0 0 4.249-5.253c.03-5.636.014-11.272.005-16.909a5.285 5.285 0 0 0-.144-1.222 5.469 5.469 0 0 0-5.236-4.234c-2.834-.039-5.669-.009-8.5-.009"/><path d="M25.025 16.691a8.341 8.341 0 1 1-8.349-8.34 8.36 8.36 0 0 1 8.349 8.34m-8.353 5.551a5.55 5.55 0 1 0-5.537-5.58 5.533 5.533 0 0 0 5.536 5.581m9.054-12.516a2.056 2.056 0 0 1-2.074-2.056 2.084 2.084 0 0 1 2.073-2.1 2.117 2.117 0 0 1 2.09 2.1 2.086 2.086 0 0 1-2.088 2.057"/></g></symbol><symbol id="ico-phone" viewBox="0 0 29.36 29.363"><defs><clipPath id="a"><path fill="none" d="M0 0h29.36v29.363H0z"/></clipPath></defs><g clip-path="url(#a)" fill="#1a1818"><path d="M0 10.131a10.981 10.981 0 0 1 2.964-7.5A18.166 18.166 0 0 1 4.63 1.022a4.236 4.236 0 0 1 5.75.214c.764.763 1.529 1.528 2.235 2.344a4.194 4.194 0 0 1-1.449 6.458c-.408.184-.81.383-1.223.555a2.4 2.4 0 0 0-1.253 2.712 6.683 6.683 0 0 0 1.366 2.584 19 19 0 0 0 4.191 4 4.09 4.09 0 0 0 2.327.86 2.364 2.364 0 0 0 2.24-1.366c.173-.35.324-.711.477-1.07a4.2 4.2 0 0 1 6.778-1.347c.656.641 1.323 1.272 1.975 1.917a4.288 4.288 0 0 1 .17 5.994 13.167 13.167 0 0 1-4.788 3.6 11.255 11.255 0 0 1-5.772.8 18.229 18.229 0 0 1-8.709-3.657 23 23 0 0 1-7.593-9.3A15.819 15.819 0 0 1 0 10.131m2.282.429c.017.246.026.7.084 1.14a13.8 13.8 0 0 0 1.562 4.725 22.329 22.329 0 0 0 5.813 6.9 17.349 17.349 0 0 0 6.026 3.263 10.376 10.376 0 0 0 5.148.278 9.973 9.973 0 0 0 5.656-3.61 1.948 1.948 0 0 0-.122-2.72 74.402 74.402 0 0 0-1.938-1.873 1.882 1.882 0 0 0-3.171.692c-.18.42-.355.846-.576 1.245a4.6 4.6 0 0 1-4.008 2.447 5.648 5.648 0 0 1-3.4-1.013 19.431 19.431 0 0 1-5.81-5.734 6.641 6.641 0 0 1-1.2-3.386A4.406 4.406 0 0 1 8.471 8.8a15.434 15.434 0 0 1 1.721-.838 1.882 1.882 0 0 0 .578-3.012Q9.8 3.914 8.8 2.9a1.945 1.945 0 0 0-2.76-.079c-.377.337-.755.678-1.1 1.046a9.388 9.388 0 0 0-2.656 6.693M16.84.001a12.1 12.1 0 0 1 4.116 1.009 13.816 13.816 0 0 1 7.954 9.032 16.527 16.527 0 0 1 .441 2.442 1.143 1.143 0 0 1-2.278.185 11.366 11.366 0 0 0-2.8-6.512 11.209 11.209 0 0 0-6.762-3.753 12.478 12.478 0 0 0-.793-.108 1.142 1.142 0 0 1-1.063-1.251A1.136 1.136 0 0 1 16.84.001"/><path d="M23.608 13.707a1.129 1.129 0 0 1-1.123-.983 6.9 6.9 0 0 0-2.192-4.108 6.817 6.817 0 0 0-3.607-1.734 1.149 1.149 0 1 1 .3-2.277 9.249 9.249 0 0 1 7.719 7.481 1.226 1.226 0 0 1-.323 1.311 3.959 3.959 0 0 1-.738.381l-.036-.072m-7.956-3.128a1.147 1.147 0 0 1 1.462-1.227 4.462 4.462 0 0 1 2.89 2.946 1.14 1.14 0 0 1-2.15.751 2.569 2.569 0 0 0-1.52-1.565 1.013 1.013 0 0 1-.683-.905"/></g></symbol><symbol id="people" viewBox="0 0 23.482 18.155"><path d="M4.974 9.341A5.134 5.134 0 0 1 3.232 4.76a5.088 5.088 0 0 1 1.8-3.389 5.4 5.4 0 0 1 7.3.325 5.314 5.314 0 0 1-.291 7.646c.15.078.295.149.435.228a8.41 8.41 0 0 1 4.525 7.441 1.034 1.034 0 0 1-1.308 1.119 1 1 0 0 1-.817-1.064 6.093 6.093 0 0 0-1.444-3.986 6.073 6.073 0 0 0-6.542-2.13 6.136 6.136 0 0 0-4.664 5.09 6.342 6.342 0 0 0-.093 1.013 1.01 1.01 0 0 1-1.082 1.095 1.006 1.006 0 0 1-1.05-1.123 8.3 8.3 0 0 1 .948-3.774 8.668 8.668 0 0 1 3.858-3.822c.05-.025.1-.052.168-.088m3.518-.751a3.122 3.122 0 0 0 3.195-3.171 3.137 3.137 0 0 0-3.177-3.2 3.139 3.139 0 0 0-3.195 3.183A3.122 3.122 0 0 0 8.493 8.59m10.443.305c.387.309.786.595 1.146.922a10.064 10.064 0 0 1 3.365 6.778c.014.157.032.314.034.471a1.063 1.063 0 0 1-2.126.047 7.815 7.815 0 0 0-.352-2.3 7.452 7.452 0 0 0-3.676-4.412 4.444 4.444 0 0 1-.915-.676 1 1 0 0 1 .214-1.69 3.074 3.074 0 0 0 1.477-2.143 3.136 3.136 0 0 0-3.1-3.775.991.991 0 0 1-1.022-.673A1.048 1.048 0 0 1 15.063 0a5.277 5.277 0 0 1 4.99 4.053 5.325 5.325 0 0 1-.97 4.653c-.049.066-.1.13-.147.19"/></symbol><symbol fill="none" id="plus" viewBox="0 0 52 52"><rect x=".678" y=".938" width="50.95" height="50.95" rx="25.475" fill="#fff"/><path stroke="#444" stroke-width="2.685" d="M26.016 17.047v18.734m-8.807-9.197h17.888"/></symbol><symbol id="slide-button" viewBox="0 0 20 20.057"><path d="m0 10.032 2.448-.587q2.718-.652 5.437-1.3a.239.239 0 0 0 .2-.217Q9 4.091 9.919.257c.015-.065.036-.128.072-.257.036.121.059.185.075.251q.921 3.834 1.837 7.67a.264.264 0 0 0 .233.228q3.837.913 7.671 1.836a.413.413 0 0 1 .192.1l-1.068.261q-3.41.818-6.821 1.632a.24.24 0 0 0-.2.209q-.914 3.836-1.837 7.67a.451.451 0 0 1-.1.2l-.3-1.211q-.8-3.331-1.594-6.662a.252.252 0 0 0-.221-.216q-3.835-.913-7.67-1.836A1.905 1.905 0 0 1 0 10.077v-.045" fill="none" stroke="#b78d00"/></symbol><symbol id="star" viewBox="0 0 40 40.114"><path d="m0 20.064 4.9-1.173 10.875-2.6a.478.478 0 0 0 .39-.435Q17.994 8.183 19.837.514c.031-.13.072-.257.145-.514.073.241.119.37.15.5q1.842 7.669 3.673 15.34a.529.529 0 0 0 .466.455q7.674 1.826 15.343 3.673a.825.825 0 0 1 .384.19c-.712.174-1.424.351-2.136.522q-6.82 1.636-13.642 3.264a.48.48 0 0 0-.409.418q-1.828 7.672-3.673 15.34a.9.9 0 0 1-.2.41c-.2-.807-.4-1.613-.591-2.421q-1.6-6.661-3.188-13.324a.5.5 0 0 0-.442-.431Q8.046 22.11.377 20.263c-.127-.03-.251-.073-.377-.109v-.089" fill="currentColor"/></symbol><symbol fill="none" id="x" viewBox="0 0 18 19"><path d="m10.675 8.178 6.553-7.46h-1.552L9.984 7.195 5.44.72H.199l6.872 9.793-6.872 7.821h1.553l6.007-6.84 4.799 6.84h5.241M2.312 1.865h2.385l10.978 15.378h-2.386" fill="#EBD5D1" fill-opacity=".62"/></symbol></svg>