<svg xmlns="http://www.w3.org/2000/svg"><symbol fill="none" id="arrow-slide" viewBox="0 0 39 74"><g clip-path="url(#a)"><path d="m1.98 1.979 35.04 35.02L1.98 72.022" stroke="#114526" stroke-width="5.57" stroke-linecap="round" stroke-linejoin="round"/></g><defs><clipPath id="a"><path fill="#fff" d="M0 0h39v74H0z"/></clipPath></defs></symbol><symbol fill="none" id="arrow" viewBox="0 0 37 17"><g clip-path="url(#a)" stroke="#3D7B56" stroke-width="3" stroke-linecap="round" stroke-linejoin="round"><path d="M1.505 8.495h33.99m-7.565 7.009 7.565-7.009m0 0-7.564-7"/></g><defs><clipPath id="a"><path fill="#fff" d="M0 0h37v17H0z"/></clipPath></defs></symbol><symbol id="Asset3" viewBox="0 0 183.89 72.4"><defs><linearGradient id="linear-gradient" x1="29.98" y1="108.38" x2="29.98" y2="55.9" gradientTransform="matrix(1 0 0 -1 0 121.47)" gradientUnits="userSpaceOnUse"><stop offset="0" stop-color="#f7ec86"/><stop offset="1" stop-color="#dbbb7c"/></linearGradient><clipPath id="clippath"><path style="fill:none" d="M0 0h59.8v69.49H0z"/></clipPath><style>.cls-4{fill:none;stroke-miterlimit:10;stroke-width:1.94px;stroke:#e6cf81}.cls-2{fill:#e4c381}</style></defs><g id="Layer_1-2"><path d="M80.97 70.23c-.1-.3-.23-.6-.39-.91-.14-.32-.34-.74-.58-1.26l-3.48-7.27h-.04l-.35 7.35c-.01.44.09.79.31 1.06.22.26.62.4 1.2.43v.44h-3.58v-.44c.37-.03.64-.17.79-.43.17-.27.26-.63.27-1.06l.41-8.99c.03-.45 0-.77-.1-.97a.598.598 0 0 0-.43-.37c-.21-.06-.48-.12-.83-.15v-.44h4.14c.1.34.22.65.35.95.14.3.3.63.46.99l3.33 6.96h.04l3.09-6.96c.3-.66.52-1.3.68-1.93h4.1v.44c-.24.01-.45.05-.62.12-.17.06-.29.2-.37.41-.06.19-.09.52-.08.97l.41 8.99c.03.41.08.72.15.93.09.21.23.35.43.43.19.06.45.11.77.14v.44h-5.51v-.44c.41-.03.7-.12.85-.29.17-.17.24-.57.21-1.2l-.33-7.91h-.04l-3.5 7.83c-.24.54-.43.97-.54 1.28-.1.3-.19.59-.27.89h-.97Zm11.08-.15v-.44c.37-.03.64-.12.81-.29.17-.17.25-.57.25-1.2v-8.99c0-.63-.1-1.03-.29-1.2-.18-.18-.53-.28-1.06-.29v-.44h9.5v2.71h-.44c-.03-.55-.22-1.01-.58-1.35-.35-.35-.89-.52-1.62-.52h-1.55c-.27 0-.48.07-.64.21-.14.14-.21.44-.21.89v3.81c.1-.08.23-.13.37-.15.15-.03.34-.04.54-.04h1.88c.39 0 .71-.11.97-.33.26-.22.39-.52.41-.91h.44v3.29h-.44c-.01-.48-.15-.8-.41-.97-.26-.17-.58-.25-.97-.25h-1.84c-.35 0-.59.06-.73.17-.14.12-.21.34-.21.68v3.69c0 .45.1.75.29.89.21.14.6.21 1.18.21h1.84c.77 0 1.39-.23 1.84-.7.45-.46.7-1.02.75-1.66h.44l-.15 3.19H92.07Zm22.7.29c-.58 0-1.08-.1-1.49-.29-.41-.18-.76-.43-1.04-.73s-.55-.65-.79-1.02l-2.71-4.22c-.13-.22-.24-.35-.35-.41-.1-.05-.23-.08-.37-.1v-.68c.77-.05 1.37-.21 1.8-.46s.72-.57.89-.95c.17-.39.25-.79.25-1.2 0-.79-.22-1.37-.66-1.76-.44-.4-.94-.6-1.51-.6-.43 0-.73.08-.91.23-.17.14-.25.46-.25.97v8.99c0 .63.1 1.03.29 1.2s.55.26 1.06.29v.44h-5.51v-.44c.37-.03.64-.12.81-.29.17-.17.25-.57.25-1.2v-8.99c0-.63-.1-1.03-.29-1.2-.18-.18-.53-.28-1.06-.29v-.44h1.35c.97 0 1.84-.01 2.63-.04.79-.04 1.46-.06 2.01-.06 1.28 0 2.29.12 3.04.37.76.23 1.3.56 1.62.99.34.43.5.91.5 1.45s-.13.99-.39 1.41c-.24.43-.57.79-.99 1.08-.4.28-.84.48-1.31.6v.04l3.21 5.03c.37.59.72 1 1.02 1.22.31.22.59.33.83.33v.44c-.26.09-.57.16-.93.21-.35.05-.69.08-1.02.08Zm8.36 0c-1.35 0-2.55-.27-3.6-.81a6.147 6.147 0 0 1-2.46-2.28c-.59-.99-.89-2.14-.89-3.44 0-1.07.19-2.02.58-2.86.39-.85.92-1.58 1.59-2.19.68-.61 1.46-1.06 2.34-1.37.89-.32 1.84-.48 2.84-.48.76 0 1.49.07 2.19.21.7.14 1.25.31 1.66.5v3.06h-.44c-.26-.79-.57-1.39-.93-1.8-.36-.43-.77-.72-1.22-.89-.44-.17-.9-.25-1.39-.25-2.49 0-3.73 1.8-3.73 5.41 0 1.19.12 2.26.37 3.23.26.97.65 1.73 1.18 2.3.54.55 1.23.83 2.07.83.68 0 1.3-.17 1.86-.5.55-.35 1.02-.81 1.41-1.37.4-.57.68-1.18.85-1.84h.44l-.15 2.94c-.43.46-1.02.85-1.8 1.16-.77.3-1.7.44-2.77.44Zm16.17-2.22c.18.44.33.76.44.97.13.21.26.34.41.41.14.05.32.09.52.12v.44h-5.4v-.44c.52-.03.8-.18.85-.46.06-.28.02-.63-.14-1.02l-.97-2.51a.81.81 0 0 1-.31.14 4.4 4.4 0 0 1-.39.02h-2.19c-.27 0-.48.03-.62.1-.14.06-.26.23-.37.48l-.7 1.78c-.17.43-.15.77.04 1.04s.57.42 1.14.44v.44h-3.52v-.44c.28-.03.52-.17.72-.43.21-.27.39-.63.56-1.06l3.71-9.4c.14-.34.26-.66.37-.99.12-.32.22-.65.31-.99h1.12c.09.34.19.66.31.99.12.32.24.65.37.99l3.71 9.4Zm-5.07-3.19c.18 0 .3-.03.35-.08.06-.06.06-.19-.02-.39l-1.33-3.31h-.04l-1.51 3.85c.06-.04.14-.06.23-.06.09-.01.19-.02.31-.02h2.01Zm18.4 5.28a8.49 8.49 0 0 0-.6-.6c-.21-.21-.53-.51-.99-.91l-7.62-6.96h-.04v6.38c0 .44.11.79.33 1.06.23.26.63.4 1.18.43v.44h-3.58v-.44c.37-.03.64-.17.81-.43.17-.27.25-.63.25-1.06v-8.99c0-.63-.1-1.03-.29-1.2-.18-.18-.54-.28-1.06-.29v-.44h2.32c.19.24.4.46.62.66.22.19.47.43.75.7l7.7 6.96h.04v-6.38c0-.44-.11-.79-.33-1.06-.22-.27-.61-.41-1.18-.43v-.44h3.58v.44c-.37.01-.64.15-.81.43-.17.27-.25.63-.25 1.06v10.04c.01.32.03.67.04 1.04h-.87Zm2.65-13.01h11.02v3.19h-.44c-.08-.7-.28-1.26-.62-1.7-.34-.44-.91-.66-1.72-.66h-1.18v10.09c0 .63.1 1.03.29 1.2s.55.26 1.06.29v.44h-5.51v-.44c.37-.03.64-.12.81-.29.17-.17.25-.57.25-1.2V58.06h-1.2c-.79 0-1.35.22-1.7.66-.34.44-.54 1.01-.62 1.7h-.44v-3.19Zm12.1 12.86v-.44c.37-.03.64-.12.81-.29.17-.17.25-.57.25-1.2v-8.99c0-.63-.1-1.03-.29-1.2-.18-.18-.54-.28-1.06-.29v-.44h5.51v.44c-.37.01-.64.11-.81.29-.17.17-.25.57-.25 1.2v8.99c0 .63.1 1.03.29 1.2.19.17.55.26 1.06.29v.44h-5.51Zm6.8 0v-.44c.37-.03.64-.12.81-.29.17-.17.25-.57.25-1.2v-8.99c0-.63-.1-1.03-.29-1.2-.18-.18-.53-.28-1.06-.29v-.44h5.51v.44c-.37.01-.64.11-.81.29-.17.17-.25.57-.25 1.2v8.99c0 .45.1.75.29.89.21.14.6.21 1.18.21h1.26c.58 0 1.04-.1 1.37-.31.34-.22.58-.51.73-.87.15-.36.25-.75.29-1.18h.44l-.15 3.19h-9.57Z" style="fill:#e4c381"/><path d="M73.49 43.19v-1.24c.97-.04 1.73-.14 2.27-.32.58-.18.97-.56 1.19-1.14.22-.58.32-1.48.32-2.7V12.65c0-1.26-.14-2.16-.43-2.7-.25-.58-.74-.96-1.46-1.14-.72-.18-1.8-.29-3.24-.32V7.25h13.52v1.24c-.97.04-1.73.14-2.27.32s-.94.56-1.19 1.14c-.22.54-.32 1.44-.32 2.7v9.46c.29-.22.63-.36 1.03-.43.43-.07.94-.11 1.51-.11h14.27c.97 0 1.66-.16 2.05-.49.4-.32.59-.97.59-1.95v-6.49c0-1.26-.14-2.16-.43-2.7-.25-.58-.74-.96-1.46-1.14-.72-.18-1.8-.29-3.24-.32V7.24h13.52v1.24c-.97.04-1.73.14-2.27.32s-.94.56-1.19 1.14c-.22.54-.32 1.44-.32 2.7v25.14c0 1.23.13 2.13.38 2.7.25.58.74.96 1.46 1.14.76.18 1.84.29 3.24.32v1.24H97.56v-1.24c.97-.04 1.73-.14 2.27-.32.58-.18.97-.56 1.19-1.14.22-.58.32-1.48.32-2.7V22.91c-.29.25-.65.41-1.08.49-.43.07-.92.11-1.46.11H84.53c-.97 0-1.66.16-2.05.49-.4.32-.59.96-.59 1.89v11.89c0 1.23.13 2.13.38 2.7.29.58.79.96 1.51 1.14.72.18 1.78.29 3.19.32v1.24H73.51Zm53.83.81c-3.1 0-5.44-.85-7.03-2.54-1.55-1.73-2.32-4.07-2.32-7.03V12.65c0-1.26-.13-2.16-.38-2.7-.25-.58-.72-.96-1.41-1.14-.65-.18-1.6-.29-2.87-.32V7.25h13.03v1.24c-.97.04-1.73.14-2.27.32s-.94.56-1.19 1.14c-.22.54-.32 1.44-.32 2.7v20.54c0 2.09.43 3.84 1.3 5.24.9 1.37 2.5 2.05 4.81 2.05 1.69 0 3.3-.38 4.81-1.14 1.51-.76 2.85-1.8 4-3.14 1.19-1.37 2.11-2.94 2.76-4.7.68-1.77 1.03-3.68 1.03-5.73V12.65c0-1.26-.13-2.16-.38-2.7-.25-.58-.76-.96-1.51-1.14-.72-.18-1.78-.29-3.19-.32V7.25h13.19v1.24c-.97.04-1.73.14-2.27.32s-.94.56-1.19 1.14c-.22.54-.32 1.44-.32 2.7v25.19c0 1.23.11 2.13.32 2.7.25.54.67.9 1.24 1.08.61.18 1.44.29 2.49.32v1.24h-7.68c-.22-.58-.38-1.26-.49-2.05-.11-.83-.16-1.95-.16-3.35v-4.6h-.11c-1.41 3.39-3.26 6.04-5.57 7.95-2.27 1.91-5.05 2.87-8.33 2.87Zm27-.81v-1.24c.97-.04 1.73-.14 2.27-.32.58-.18.97-.56 1.19-1.14.22-.58.32-1.48.32-2.7V12.65c0-1.26-.14-2.16-.43-2.7-.25-.58-.74-.96-1.46-1.14-.72-.18-1.8-.29-3.24-.32V7.25h5.14c1.77 0 3.21-.02 4.32-.05 1.12-.07 2.14-.13 3.08-.16.97-.04 2.09-.05 3.35-.05 3.82 0 6.61.67 8.38 2 1.77 1.3 2.65 3.01 2.65 5.14s-.72 3.95-2.16 5.24c-1.44 1.3-3.21 2.32-5.3 3.08v.11c2.2.11 4.14.54 5.84 1.3 1.73.72 3.1 1.75 4.11 3.08s1.51 2.96 1.51 4.87-.5 3.69-1.51 5.46c-.97 1.73-2.52 3.15-4.65 4.27-2.09 1.12-4.83 1.68-8.22 1.68h-15.19Zm8.38-20c.47-.32.9-.52 1.3-.59.43-.11.94-.18 1.51-.22 1.08-.11 2.16-.27 3.24-.49 1.12-.25 2.13-.65 3.03-1.19a6.35 6.35 0 0 0 2.27-2.22c.58-.97.87-2.2.87-3.68 0-1.69-.4-2.96-1.19-3.78-.79-.83-1.78-1.39-2.97-1.68-1.19-.29-2.41-.43-3.68-.43-1.55 0-2.67.2-3.35.59-.68.4-1.03 1.44-1.03 3.14v10.54Zm6.38 18.06c2.56 0 4.54-.47 5.95-1.41 1.44-.94 2.45-2.09 3.03-3.46.58-1.41.87-2.79.87-4.16 0-1.98-.5-3.55-1.51-4.7-.97-1.19-2.31-2.04-4-2.54-1.66-.54-3.53-.81-5.62-.81-1.77 0-3.06.23-3.89.7-.79.43-1.19 1.26-1.19 2.49v10.43c0 1.05.18 1.82.54 2.32.36.47.99.77 1.89.92.94.14 2.25.22 3.95.22Z" style="fill:#fff"/><g style="clip-path:url(#clippath)"><path d="M29.97 65.57V50.12l.02-37.03" style="stroke:url(#linear-gradient);stroke-miterlimit:10;stroke-width:1.94px;fill:none"/><path d="M29.99 13.09c2.5 0 4.52-2.02 4.52-4.52s-2.02-4.52-4.52-4.52-4.52 2.02-4.52 4.52 2.02 4.52 4.52 4.52Z" style="stroke-miterlimit:10;stroke-width:1.94px;fill:#f3e784;stroke:#f3e784"/><path class="cls-4" d="M10.51 29.67a34.736 34.736 0 0 1 19.48 19.48"/><path class="cls-4" d="M6.47 32.7c2.5 0 4.52-2.02 4.52-4.52s-2.02-4.52-4.52-4.52-4.52 2.02-4.52 4.52 2.02 4.52 4.52 4.52Zm43-3.03a34.736 34.736 0 0 0-19.48 19.48"/><path class="cls-4" d="M53.52 32.7c-2.5 0-4.52-2.02-4.52-4.52s2.02-4.52 4.52-4.52 4.52 2.02 4.52 4.52-2.02 4.52-4.52 4.52Z"/></g><path style="stroke:#dfc17e;stroke-width:.64px;fill:none" d="M20.81 72.08h18.23"/></g></symbol><symbol class="ionicon" id="close" viewBox="0 0 512 512"><path d="m289.94 256 95-95A24 24 0 0 0 351 127l-95 95-95-95a24 24 0 0 0-34 34l95 95-95 95a24 24 0 1 0 34 34l95-95 95 95a24 24 0 0 0 34-34z"/></symbol><symbol fill="none" id="facebook" viewBox="0 0 20 19"><path d="M18.625.145H1.375a.75.75 0 0 0-.75.75v17.25c0 .414.335.75.75.75h17.25a.75.75 0 0 0 .75-.75V.895a.75.75 0 0 0-.75-.75Zm-2.166 5.472h-1.497c-1.175 0-1.402.558-1.402 1.378v1.807h2.803l-.365 2.83H13.56v7.263h-2.923v-7.261H8.194V8.802h2.444V6.716c0-2.42 1.48-3.74 3.64-3.74 1.036 0 1.925.077 2.185.112v2.53h-.003Z" fill="#EBD5D1" fill-opacity=".62"/></symbol><symbol id="ico-facebook" viewBox="0 0 22.6 22.6"><defs><clipPath id="a"><path fill="none" d="M0 0h22.6v22.6H0z"/></clipPath></defs><path d="M13.925 11.517h-5.25a.8.8 0 0 1-.8-.8.8.8 0 0 1 .8-.8h5.25a.8.8 0 0 1 .8.8.8.8 0 0 1-.8.8Z" fill="#c7c7c7"/><g clip-path="url(#a)" fill="#c7c7c7"><path d="M10.425 17.35a.8.8 0 0 1-.8-.8V8.383a3.137 3.137 0 0 1 3.133-3.133h1.167a.8.8 0 1 1 0 1.6h-1.167a1.535 1.535 0 0 0-1.533 1.533v8.167a.8.8 0 0 1-.8.8Z"/><path d="M6.633 0h9.333A6.642 6.642 0 0 1 22.6 6.634v9.332a6.642 6.642 0 0 1-6.634 6.634H6.633A6.641 6.641 0 0 1 0 15.967V6.633A6.641 6.641 0 0 1 6.633 0Zm9.333 21A5.04 5.04 0 0 0 21 15.966V6.634A5.04 5.04 0 0 0 15.966 1.6H6.633A5.039 5.039 0 0 0 1.6 6.633v9.334A5.039 5.039 0 0 0 6.633 21Z"/></g></symbol><symbol id="ico-instagram" viewBox="0 0 22.6 22.6"><defs><clipPath id="a"><path fill="none" d="M0 0h22.6v22.6H0z"/></clipPath></defs><g clip-path="url(#a)" fill="#c7c7c7"><path d="M6.045 0h10.51A6.052 6.052 0 0 1 22.6 6.045v10.509a6.053 6.053 0 0 1-6.046 6.046H6.045A6.052 6.052 0 0 1 0 16.555V6.045A6.052 6.052 0 0 1 6.045 0Zm10.509 21A4.451 4.451 0 0 0 21 16.554V6.045A4.45 4.45 0 0 0 16.555 1.6H6.045A4.45 4.45 0 0 0 1.6 6.045v10.51A4.45 4.45 0 0 0 6.045 21Z"/><path d="M17.075 6.72a1.194 1.194 0 1 1 .846-2.036 1.194 1.194 0 0 1-.846 2.036ZM11.3 16.3a5 5 0 1 1 3.535-1.464A4.97 4.97 0 0 1 11.3 16.3Zm0-8.4a3.4 3.4 0 1 0 2.4 1 3.38 3.38 0 0 0-2.4-1Z"/></g></symbol><symbol id="ico-share" viewBox="0 0 12 12"><g clip-path="url(#a)" fill="#3d7b56"><path d="M10 12H2a1.993 1.993 0 0 1-2-2V2a1.993 1.993 0 0 1 2-2h2.67a.67.67 0 1 1 0 1.34H2a.67.67 0 0 0-.67.67V10a.67.67 0 0 0 .67.67h8a.67.67 0 0 0 .67-.67V7.33a.67.67 0 1 1 1.34 0V10a1.993 1.993 0 0 1-2 2Z"/><path d="M12 .7v3.33a.668.668 0 0 1-.41.61.559.559 0 0 1-.25.05.665.665 0 0 1-.47-.19L9.64 3.33 6.45 6.52a.665.665 0 0 1-.94-.94l3.17-3.21-1.17-1.19a.68.68 0 0 1-.16-.73.667.667 0 0 1 .67-.41h3.59a.633.633 0 0 1 .35.35v.09a.585.585 0 0 1 .05.22Z"/></g></symbol><symbol id="ico-spotify" viewBox="0 0 22.75 22.75"><defs><clipPath id="a"><path fill="none" d="M0 0h22.75v22.75H0z"/></clipPath></defs><g clip-path="url(#a)" fill="#c7c7c7"><path d="M18.1 10.22a.871.871 0 0 1-.467-.136c-2.524-1.6-8.068-2.463-12.3-1.212a.875.875 0 1 1-.5-1.678c4.838-1.432 10.894-.383 13.73 1.41a.875.875 0 0 1-.463 1.616Zm-1.327 3.324a.8.8 0 0 1-.432-.127A12.176 12.176 0 0 0 11.6 11.8a13.324 13.324 0 0 0-5.74.4.8.8 0 0 1-.476-1.528 14.931 14.931 0 0 1 6.435-.456 13.619 13.619 0 0 1 5.387 1.852.8.8 0 0 1-.434 1.473Zm-1.136 3.008a.871.871 0 0 1-.449-.125c-2.463-1.478-5.432-1.8-9.075-.982a.875.875 0 0 1-.383-1.708c4.1-.92 7.491-.531 10.359 1.19a.875.875 0 0 1-.451 1.625Z"/><path d="M6.125 0H16.63a6.127 6.127 0 0 1 6.12 6.12v10.511a6.126 6.126 0 0 1-6.12 6.119H6.12A6.127 6.127 0 0 1 0 16.63V6.125A6.132 6.132 0 0 1 6.125 0ZM16.63 21A4.374 4.374 0 0 0 21 16.631V6.12a4.375 4.375 0 0 0-4.37-4.37H6.125A4.38 4.38 0 0 0 1.75 6.125V16.63A4.375 4.375 0 0 0 6.12 21Z"/></g></symbol><symbol id="ico-whatsapp" viewBox="0 0 512 512"><path d="M240 0h32a28.365 28.365 0 0 0 3.85.817c39.862 2.98 77.177 14.423 111.176 35.354 66.084 40.684 106.786 99.204 121.046 175.714 1.732 9.293 2.639 18.74 3.928 28.115v32c-.41 3.282-.867 6.558-1.223 9.846-5.481 50.635-23.83 96.057-56.147 135.44-40.187 48.975-91.6 79.387-154.045 90.75-9.456 1.72-19.053 2.662-28.585 3.964h-32c-6.249-.769-12.511-1.436-18.743-2.323-47.226-6.717-89.65-24.715-126.521-55.03-48.939-40.24-79.414-91.582-90.757-154.04C2.26 291.144 1.307 281.54 0 272v-32c.405-3.28.85-6.554 1.208-9.838 5.923-54.228 26.427-102.18 62.602-143.06 39.778-44.953 89.323-72.907 148.583-83.24C221.542 2.267 230.796 1.272 240 0ZM107.023 407.4c2.115-.44 3.556-.673 4.962-1.04 23.978-6.254 47.928-12.615 71.958-18.659a13.282 13.282 0 0 1 8.394.977c28.13 13.817 57.708 19.078 88.774 15.096 85.208-10.922 144.785-90.459 131.747-175.67-12.856-84.021-93.125-141.722-177.047-127.27-103.404 17.807-158.785 131.138-109.423 223.68a12.527 12.527 0 0 1 .865 8.323c-6.487 24.596-13.277 49.111-20.23 74.562Z"/><path d="M143.758 371.28c3.964-14.586 7.57-28.367 11.521-42.047a10.46 10.46 0 0 0-1.367-9.292c-46.797-75.737-6.634-172.28 79.988-192.447 70.644-16.447 142.364 32.395 153.238 104.356 10.62 70.28-36.365 134.886-106.504 145.83-30.2 4.712-58.58-1.342-85.059-16.655a11.587 11.587 0 0 0-7.773-1.06c-14.382 3.458-28.667 7.316-44.044 11.315Zm157.666-45.878a54.176 54.176 0 0 0 7.156-.494c17.688-3.585 30.991-13.763 30.392-32.901-.058-1.855-1.125-4.617-2.546-5.341-10.657-5.432-21.491-10.519-32.337-15.57-3.113-1.45-5.668-.433-7.8 2.391-3.609 4.778-7.513 9.331-11.228 14.03-2.311 2.922-4.997 3.347-8.397 1.992-22.475-8.953-39.606-24.054-52.055-44.697-1.957-3.246-1.624-5.73.723-8.549a83.27 83.27 0 0 0 8.593-11.615c1.23-2.153 1.887-5.585 1.068-7.795-3.75-10.124-8.009-20.067-12.349-29.96a11.003 11.003 0 0 0-4.443-5.076c-5.11-2.697-16.489-.602-20.663 3.46-11.936 11.615-16.14 25.67-12.812 41.923 2.85 13.923 10.655 25.321 19.023 36.386 16.169 21.382 34.948 39.803 59.783 50.911 12.112 5.417 24.36 10.835 37.892 10.904Z"/></symbol><symbol id="ico-youtube" viewBox="0 0 24.933 20.691"><defs><clipPath id="a"><path fill="none" d="M0 0h24.933v20.691H0z"/></clipPath></defs><g clip-path="url(#a)" fill="#c7c7c7"><path d="M12.467 0c.759 0 7.473.017 9.354.6a4.018 4.018 0 0 1 2.606 3 41.524 41.524 0 0 1 .506 6.743 41.523 41.523 0 0 1-.506 6.743 4.012 4.012 0 0 1-2.606 3c-1.881.587-8.594.6-9.354.6s-7.47-.017-9.354-.6a4.014 4.014 0 0 1-2.606-3A41.443 41.443 0 0 1 0 10.346 41.442 41.442 0 0 1 .507 3.6a4.011 4.011 0 0 1 2.606-3C5 .017 11.708 0 12.467 0Zm0 19.091c2 0 7.481-.1 8.878-.532a2.415 2.415 0 0 0 1.523-1.828 40.964 40.964 0 0 0 .466-6.385 41 41 0 0 0-.466-6.387 2.419 2.419 0 0 0-1.525-1.828c-1.395-.431-6.88-.531-8.876-.531s-7.479.1-8.878.532A2.414 2.414 0 0 0 2.067 3.96a40.916 40.916 0 0 0-.467 6.386 40.915 40.915 0 0 0 .467 6.386 2.416 2.416 0 0 0 1.524 1.828c1.397.44 6.881.531 8.876.531Z"/><path d="M10.135 14.646a.8.8 0 0 1-.8-.8v-7a.8.8 0 0 1 1.2-.693l6.062 3.5a.8.8 0 0 1 0 1.386l-6.062 3.5a.8.8 0 0 1-.4.107Zm.8-6.414v4.228l3.665-2.114Z"/></g></symbol><symbol fill="none" id="instagram" viewBox="0 0 24 25"><path d="M12.001 7.022a5.486 5.486 0 0 0-5.494 5.494 5.486 5.486 0 0 0 5.494 5.493 5.486 5.486 0 0 0 5.494-5.493 5.486 5.486 0 0 0-5.494-5.494Zm0 9.064a3.578 3.578 0 0 1-3.57-3.57A3.578 3.578 0 0 1 12 8.946a3.578 3.578 0 0 1 3.57 3.57 3.578 3.578 0 0 1-3.57 3.57Zm5.719-10.57c-.71 0-1.283.574-1.283 1.284 0 .71.573 1.283 1.283 1.283a1.28 1.28 0 0 0 1.186-1.775 1.281 1.281 0 0 0-1.186-.791Zm4.99 7c0-1.479.014-2.944-.07-4.42-.082-1.714-.474-3.236-1.727-4.49-1.256-1.256-2.775-1.644-4.49-1.727-1.478-.083-2.943-.07-4.42-.07-1.478 0-2.943-.013-4.419.07-1.714.083-3.235.474-4.489 1.728C1.839 4.863 1.45 6.382 1.367 8.096c-.083 1.479-.07 2.944-.07 4.42s-.013 2.943.07 4.42c.083 1.714.474 3.235 1.728 4.489 1.256 1.256 2.775 1.644 4.49 1.727 1.478.083 2.943.07 4.419.07 1.479 0 2.944.013 4.42-.07 1.714-.083 3.235-.474 4.489-1.727 1.256-1.257 1.645-2.775 1.727-4.49.086-1.476.07-2.94.07-4.42Zm-2.357 6.316a3.403 3.403 0 0 1-.809 1.226 3.44 3.44 0 0 1-1.227.81c-1.409.56-4.754.433-6.316.433-1.561 0-4.91.126-6.319-.43a3.403 3.403 0 0 1-1.226-.81 3.427 3.427 0 0 1-.81-1.227c-.556-1.411-.43-4.757-.43-6.318 0-1.562-.126-4.91.43-6.32.196-.487.432-.85.81-1.226a3.464 3.464 0 0 1 1.226-.809c1.41-.557 4.758-.431 6.32-.431 1.56 0 4.91-.126 6.318.431.488.196.852.431 1.227.81.377.377.613.738.809 1.226.557 1.409.431 4.757.431 6.319 0 1.561.126 4.907-.434 6.316Z" fill="#EBD5D1" fill-opacity=".62"/></symbol><symbol id="logo-hub-mercantil-black" viewBox="0 0 182.75 68.77"><path d="M100.24 64.62c-.45.47-1.07.7-1.84.7h-1.84c-.58 0-.97-.07-1.18-.21-.19-.14-.29-.44-.29-.89v-3.69c0-.34.07-.56.21-.68.14-.11.38-.17.73-.17h1.84c.39 0 .71.08.97.25.26.17.4.49.41.97h.44v-3.29h-.44c-.02.39-.15.69-.41.91-.26.22-.58.33-.97.33h-1.88c-.2 0-.39.01-.54.04-.14.02-.27.07-.37.15v-3.81c0-.45.07-.75.21-.89.16-.14.37-.21.64-.21h1.55c.73 0 1.27.17 1.62.52.36.34.55.8.58 1.35h.44v-2.71h-9.5v.44c.53.01.88.11 1.06.29.19.17.29.57.29 1.2v8.99c0 .63-.08 1.03-.25 1.2-.17.17-.44.26-.81.29v.44h10.37l.15-3.18h-.44c-.05.64-.3 1.2-.75 1.66Zm-11.53.53c-.07-.21-.12-.52-.15-.93l-.41-8.99c0-.45.02-.78.08-.97.08-.21.2-.35.37-.41.17-.07.38-.11.62-.12v-.44h-4.1c-.16.63-.38 1.27-.68 1.93l-3.09 6.96h-.04l-3.33-6.96c-.16-.36-.32-.69-.46-.99-.13-.3-.25-.61-.35-.95h-4.14v.44c.35.03.62.09.83.15.21.05.35.18.43.37.1.2.13.52.1.97l-.41 8.99c-.01.43-.1.79-.27 1.06-.15.26-.42.4-.79.43v.44h3.58v-.44c-.58-.03-.98-.17-1.2-.43-.22-.27-.32-.62-.31-1.06l.35-7.35h.04l3.48 7.27c.24.52.44.94.58 1.26.16.31.29.61.39.91l-.02.03h.97c.08-.3.17-.59.27-.89.11-.31.3-.74.54-1.28l3.5-7.83h.04l.33 7.91c.03.63-.04 1.03-.21 1.2-.15.17-.44.26-.85.29v.44h5.51v-.44c-.32-.03-.58-.08-.77-.14a.758.758 0 0 1-.43-.43Zm24.9 1.28h-.02.02zm68.4-2.29c-.15.36-.39.65-.73.87-.33.21-.79.31-1.37.31h-1.26c-.58 0-.97-.07-1.18-.21-.19-.14-.29-.44-.29-.89v-8.99c0-.63.08-1.03.25-1.2.17-.18.44-.28.81-.29v-.44h-5.51v.44c.53.01.88.11 1.06.29.19.17.29.57.29 1.2v8.99c0 .63-.08 1.03-.25 1.2-.17.17-.44.26-.81.29v.44h9.57l.15-3.19h-.44c-.04.43-.14.82-.29 1.18Zm-32.23-10.4c.57.02.96.16 1.18.43.22.27.33.62.33 1.06v6.38h-.04l-7.7-6.96c-.28-.27-.53-.51-.75-.7-.22-.2-.43-.42-.62-.66h-2.32v.44c.52.01.88.11 1.06.29.19.17.29.57.29 1.2v8.99c0 .43-.08.79-.25 1.06-.17.26-.44.4-.81.43v.44h3.58v-.44c-.55-.03-.95-.17-1.18-.43-.22-.27-.33-.62-.33-1.06v-6.38h.04l7.62 6.96c.46.4.78.7.99.91.21.19.41.39.6.6h.87c0-.36-.03-.71-.04-1.03V55.23c0-.43.08-.79.25-1.06.17-.28.44-.42.81-.43v-.44h-3.58v.44Zm-36.09 10.41-3.21-5.03v-.04c.47-.12.91-.32 1.31-.6.42-.29.75-.65.99-1.08.26-.42.39-.87.39-1.41s-.16-1.02-.5-1.45c-.32-.43-.86-.76-1.62-.99-.75-.25-1.76-.37-3.04-.37-.55 0-1.22.02-2.01.06-.79.03-1.66.04-2.63.04h-1.35v.44c.53.01.88.11 1.06.29.19.17.29.57.29 1.2v8.99c0 .63-.08 1.03-.25 1.2s-.44.26-.81.29v.44h5.51v-.44c-.51-.03-.87-.12-1.06-.29s-.29-.57-.29-1.2v-8.99c0-.51.08-.83.25-.97.18-.15.48-.23.91-.23.57 0 1.07.2 1.51.6.44.39.66.97.66 1.76 0 .41-.08.81-.25 1.2-.17.38-.46.7-.89.95s-1.03.41-1.8.46v.68c.14.02.27.05.37.1.11.06.22.19.35.41l2.71 4.22c.24.37.51.72.79 1.02.28.3.63.55 1.04.73.41.19.9.29 1.48.29.33 0 .66-.03 1.01-.08.36-.05.67-.12.93-.21v-.44c-.24 0-.52-.11-.83-.33-.3-.22-.65-.63-1.02-1.22Zm24.89 1.03c-.11-.21-.26-.53-.44-.97l-.03.02-3.71-9.4c-.13-.34-.25-.67-.37-.99-.12-.33-.22-.65-.31-.99h-1.12c-.09.34-.19.67-.31.99-.11.33-.23.65-.37.99l-3.71 9.4c-.17.43-.35.79-.56 1.06-.2.26-.44.4-.72.43v.44h3.52v-.44c-.57-.02-.95-.17-1.14-.44s-.21-.61-.04-1.04l.7-1.78c.11-.25.23-.42.37-.48.14-.07.35-.1.62-.1h2.19c.15 0 .27 0 .39-.02a.81.81 0 0 0 .31-.14l.97 2.51c.16.39.2.74.14 1.02-.05.28-.33.43-.85.46v.44h5.4v-.44c-.2-.03-.38-.07-.52-.12-.15-.07-.28-.2-.41-.41Zm-5.16-4.24c-.05.05-.17.08-.35.08h-2.01c-.12-.01-.22 0-.31.01-.09 0-.17.02-.23.06l1.51-3.85h.04l1.33 3.31c.08.2.08.33.02.39Zm-8.02 2.79c-.39.56-.86 1.02-1.41 1.37a3.6 3.6 0 0 1-1.86.5c-.84 0-1.53-.28-2.07-.83-.53-.57-.92-1.33-1.18-2.3-.25-.97-.37-2.04-.37-3.23 0-3.61 1.24-5.41 3.73-5.41.49 0 .95.08 1.39.25.45.17.86.46 1.22.89.36.41.67 1.01.93 1.8h.44v-3.06c-.41-.19-.96-.36-1.66-.5s-1.43-.21-2.19-.21c-1 0-1.95.16-2.84.48-.88.31-1.66.76-2.34 1.37a6.71 6.71 0 0 0-1.59 2.19c-.39.84-.58 1.79-.58 2.86 0 1.3.3 2.45.89 3.44.6.98 1.42 1.74 2.46 2.28 1.05.54 2.25.81 3.6.81 1.07 0 2-.14 2.77-.44.78-.31 1.37-.7 1.8-1.16l.15-2.94h-.44a5.6 5.6 0 0 1-.85 1.84Zm44.98.49v-8.99c0-.63.08-1.03.25-1.2.17-.18.44-.28.81-.29v-.44h-5.51v.44c.52.01.88.11 1.06.29.19.17.29.57.29 1.2v8.99c0 .63-.08 1.03-.25 1.2s-.44.26-.81.29v.44h5.51v-.44c-.51-.03-.87-.12-1.06-.29-.19-.17-.29-.57-.29-1.2Zm-16.26-7.74h.44c.08-.69.28-1.26.62-1.7.35-.44.91-.66 1.7-.66h1.2v10.09c0 .63-.08 1.03-.25 1.2-.17.17-.44.26-.81.29v.44h5.51v-.44c-.51-.03-.87-.12-1.06-.29-.19-.17-.29-.57-.29-1.2V54.12h1.18c.81 0 1.38.22 1.72.66.34.44.54 1 .62 1.7h.44v-3.19h-11.02v3.19ZM116.45 6c.25.54.38 1.44.38 2.7v21.79c0 2.96.77 5.3 2.32 7.03 1.59 1.69 3.93 2.54 7.03 2.54h-.01c3.28-.01 6.06-.97 8.33-2.88 2.31-1.91 4.16-4.56 5.57-7.95h.11v4.6c0 1.4.05 2.52.16 3.35.11.79.27 1.47.49 2.05h7.68v-1.24c-1.05-.03-1.88-.14-2.49-.32-.57-.18-.99-.54-1.24-1.08-.21-.57-.32-1.47-.32-2.7V8.7c0-1.26.1-2.16.32-2.7.25-.58.65-.96 1.19-1.14.54-.18 1.3-.28 2.27-.32V3.3h-13.19v1.24c1.41.03 2.47.14 3.19.32.75.18 1.26.56 1.51 1.14.25.54.38 1.44.38 2.7v13.13c0 2.05-.35 3.96-1.03 5.73-.65 1.76-1.57 3.33-2.76 4.7-1.15 1.34-2.49 2.38-4 3.14s-3.12 1.14-4.81 1.14c-2.31 0-3.91-.68-4.81-2.05-.87-1.4-1.3-3.15-1.3-5.24V8.7c0-1.26.1-2.16.32-2.7.25-.58.65-.96 1.19-1.14.54-.18 1.3-.28 2.27-.32V3.3h-13.03v1.24c1.27.03 2.22.14 2.87.32.69.18 1.16.56 1.41 1.14Zm40.08 0c.29.54.43 1.44.43 2.7v25.15c0 1.22-.1 2.12-.32 2.7-.22.58-.61.96-1.19 1.14-.54.18-1.3.28-2.27.32v1.26h15.19c3.39 0 6.13-.56 8.22-1.68 2.13-1.12 3.68-2.54 4.65-4.27 1.01-1.77 1.51-3.55 1.51-5.46s-.5-3.54-1.51-4.87-2.38-2.36-4.11-3.08c-1.7-.76-3.64-1.19-5.84-1.3v-.11c2.09-.76 3.86-1.78 5.3-3.08 1.44-1.29 2.16-3.11 2.16-5.24s-.88-3.84-2.65-5.14c-1.77-1.33-4.56-2-8.38-2-1.26 0-2.38.01-3.35.05-.94.03-1.96.09-3.08.16-1.11.03-2.55.05-4.32.05h-5.14v1.24c1.44.03 2.52.14 3.24.32.72.18 1.21.56 1.46 1.14Zm15.75 15.04c1.69.5 3.03 1.35 4 2.54 1.01 1.15 1.51 2.72 1.51 4.7 0 1.37-.29 2.75-.87 4.16-.58 1.37-1.59 2.52-3.03 3.46-1.41.94-3.39 1.41-5.95 1.41-1.69 0-3-.08-3.93-.22-.9-.15-1.53-.45-1.89-.92-.36-.5-.54-1.27-.54-2.32V23.42c0-1.23.4-2.06 1.19-2.49.83-.47 2.12-.7 3.89-.7 2.09 0 3.96.27 5.62.81Zm-10.72-1.8V8.7c0-1.7.35-2.74 1.03-3.14.68-.39 1.8-.59 3.35-.59 1.27 0 2.49.14 3.68.43s2.18.85 2.97 1.68c.79.82 1.19 2.09 1.19 3.78 0 1.48-.29 2.71-.87 3.68a6.35 6.35 0 0 1-2.27 2.22c-.9.54-1.91.94-3.03 1.19-1.08.22-2.16.38-3.24.49-.57.04-1.08.11-1.51.22-.4.07-.83.27-1.3.59ZM85.83 37.99c-1.41-.03-2.47-.14-3.19-.32-.72-.18-1.22-.56-1.51-1.14-.25-.57-.38-1.47-.38-2.7V21.94c0-.93.19-1.57.59-1.89.39-.33 1.08-.49 2.05-.49h14.27c.54 0 1.03-.04 1.46-.11.43-.08.79-.24 1.08-.49v14.87c0 1.22-.1 2.12-.32 2.7-.22.58-.61.96-1.19 1.14-.54.18-1.3.28-2.27.32v1.24h13.46v-1.24c-1.4-.03-2.48-.14-3.24-.32-.72-.18-1.21-.56-1.46-1.14-.25-.57-.38-1.47-.38-2.7V8.69c0-1.26.1-2.16.32-2.7.25-.58.65-.96 1.19-1.14s1.3-.28 2.27-.32V3.29H95.06v1.24c1.44.03 2.52.14 3.24.32.72.18 1.21.56 1.46 1.14.29.54.43 1.44.43 2.7v6.49c0 .98-.19 1.63-.59 1.95-.39.33-1.08.49-2.05.49H83.28c-.57 0-1.08.04-1.51.11-.4.07-.74.21-1.03.43V8.7c0-1.26.1-2.16.32-2.7.25-.58.65-.96 1.19-1.14s1.3-.28 2.27-.32V3.3H71v1.24c1.44.03 2.52.14 3.24.32.72.18 1.21.56 1.46 1.14.29.54.43 1.44.43 2.7v25.15c0 1.22-.1 2.12-.32 2.7-.22.58-.61.96-1.19 1.14-.54.18-1.3.28-2.27.32v1.24l.02-.02h13.46v-1.24ZM51.97 19.27c-4.1-.06-5.99 3.37-5.7 6.54a35.668 35.668 0 0 0-15.98 13.91V11.64C36.46 10.31 35.98-.1 28.85 0c-7.12-.1-7.6 10.31-1.45 11.64v28.04a35.775 35.775 0 0 0-15.97-13.87c.3-3.17-1.6-6.59-5.7-6.54-7.64-.11-7.64 11.89 0 11.78 2.28.03 3.88-1.02 4.8-2.5 7.62 3.43 13.7 9.72 16.86 17.48V61.9h2.89V46.1a32.806 32.806 0 0 1 16.89-17.55c.92 1.48 2.51 2.53 4.8 2.5 7.64.11 7.64-11.89 0-11.78ZM5.74 28.16c-3.88.05-3.88-6.04 0-5.99 3.88-.05 3.88 6.04 0 5.99Zm46.23 0c-3.88.05-3.88-6.04 0-5.99 3.88-.05 3.88 6.04 0 5.99ZM19.83 67.82h17.91v.95H19.83z" style="fill:#231f20" id="Layer_2-2"/></symbol><symbol id="logo-hub-mercantil" viewBox="0 0 182.74 68.78"><defs><linearGradient id="linear-gradient" x1="28.84" y1="0" x2="28.84" y2="61.9" gradientUnits="userSpaceOnUse"><stop offset="0" stop-color="#f7ec86"/><stop offset=".43" stop-color="#dcbb7c"/><stop offset="1" stop-color="#dbbb7c"/></linearGradient></defs><g id="Layer_1-2"><path class="cls-2" d="M79.82 66.29c-.1-.3-.23-.6-.39-.91-.14-.32-.34-.74-.58-1.26l-3.48-7.27h-.04l-.35 7.35c-.01.44.09.79.31 1.06.22.26.62.4 1.2.43v.44h-3.58v-.44c.37-.03.64-.17.79-.43.17-.27.26-.63.27-1.06l.41-8.99c.03-.45 0-.77-.1-.97a.598.598 0 0 0-.43-.37c-.21-.06-.48-.12-.83-.15v-.44h4.14c.1.34.22.65.35.95.14.3.3.63.46.99l3.33 6.96h.04l3.09-6.96c.3-.66.52-1.3.68-1.93h4.1v.44c-.24.01-.45.05-.62.12-.17.06-.29.2-.37.41-.06.19-.09.52-.08.97l.41 8.99c.03.41.08.72.15.93.09.21.23.35.43.43.19.06.45.11.77.14v.44h-5.51v-.44c.41-.03.7-.12.85-.29.17-.17.24-.57.21-1.2l-.33-7.91h-.04l-3.5 7.83c-.24.54-.43.97-.54 1.28-.1.3-.19.59-.27.89h-.97Zm11.08-.15v-.44c.37-.03.64-.12.81-.29.17-.17.25-.57.25-1.2v-8.99c0-.63-.1-1.03-.29-1.2-.18-.18-.53-.28-1.06-.29v-.44h9.5V56h-.44c-.03-.55-.22-1.01-.58-1.35-.35-.35-.89-.52-1.62-.52h-1.55c-.27 0-.48.07-.64.21-.14.14-.21.44-.21.89v3.81c.1-.08.23-.13.37-.15.15-.03.34-.04.54-.04h1.88c.39 0 .71-.11.97-.33.26-.22.39-.52.41-.91h.44v3.29h-.44c-.01-.48-.15-.8-.41-.97-.26-.17-.58-.25-.97-.25h-1.84c-.35 0-.59.06-.73.17-.14.12-.21.34-.21.68v3.69c0 .45.1.75.29.89.21.14.6.21 1.18.21h1.84c.77 0 1.39-.23 1.84-.7.45-.46.7-1.02.75-1.66h.44l-.15 3.19H90.92Zm22.7.29c-.58 0-1.08-.1-1.49-.29-.41-.18-.76-.43-1.04-.73s-.55-.65-.79-1.02l-2.71-4.22c-.13-.22-.24-.35-.35-.41-.1-.05-.23-.08-.37-.1v-.68c.77-.05 1.37-.21 1.8-.46s.72-.57.89-.95c.17-.39.25-.79.25-1.2 0-.79-.22-1.37-.66-1.76-.44-.4-.94-.6-1.51-.6-.43 0-.73.08-.91.23-.17.14-.25.46-.25.97v8.99c0 .63.1 1.03.29 1.2s.55.26 1.06.29v.44h-5.51v-.44c.37-.03.64-.12.81-.29.17-.17.25-.57.25-1.2v-8.99c0-.63-.1-1.03-.29-1.2-.18-.18-.53-.28-1.06-.29v-.44h1.35c.97 0 1.84-.01 2.63-.04.79-.04 1.46-.06 2.01-.06 1.28 0 2.29.12 3.04.37.76.23 1.3.56 1.62.99.34.43.5.91.5 1.45s-.13.99-.39 1.41c-.24.43-.57.79-.99 1.08-.4.28-.84.48-1.31.6v.04l3.21 5.03c.37.59.72 1 1.02 1.22.31.22.59.33.83.33v.44c-.26.09-.57.16-.93.21-.35.05-.69.08-1.02.08Zm8.36 0c-1.35 0-2.55-.27-3.6-.81a6.147 6.147 0 0 1-2.46-2.28c-.59-.99-.89-2.14-.89-3.44 0-1.07.19-2.02.58-2.86.39-.85.92-1.58 1.59-2.19.68-.61 1.46-1.06 2.34-1.37.89-.32 1.84-.48 2.84-.48.76 0 1.49.07 2.19.21.7.14 1.25.31 1.66.5v3.06h-.44c-.26-.79-.57-1.39-.93-1.8-.36-.43-.77-.72-1.22-.89-.44-.17-.9-.25-1.39-.25-2.49 0-3.73 1.8-3.73 5.41 0 1.19.12 2.26.37 3.23.26.97.65 1.73 1.18 2.3.54.55 1.23.83 2.07.83.68 0 1.3-.17 1.86-.5.55-.35 1.02-.81 1.41-1.37.4-.57.68-1.18.85-1.84h.44l-.15 2.94c-.43.46-1.02.85-1.8 1.16-.77.3-1.7.44-2.77.44Zm16.17-2.22c.18.44.33.76.44.97.13.21.26.34.41.41.14.05.32.09.52.12v.44h-5.4v-.44c.52-.03.8-.18.85-.46.06-.28.02-.63-.14-1.02l-.97-2.51a.81.81 0 0 1-.31.14 4.4 4.4 0 0 1-.39.02h-2.19c-.27 0-.48.03-.62.1-.14.06-.26.23-.37.48l-.7 1.78c-.17.43-.15.77.04 1.04s.57.42 1.14.44v.44h-3.52v-.44c.28-.03.52-.17.72-.43.21-.27.39-.63.56-1.06l3.71-9.4c.14-.34.26-.66.37-.99.12-.32.22-.65.31-.99h1.12c.09.34.19.66.31.99.12.32.24.65.37.99l3.71 9.4Zm-5.07-3.19c.18 0 .3-.03.35-.08.06-.06.06-.19-.02-.39l-1.33-3.31h-.04l-1.51 3.85c.06-.04.14-.06.23-.06.09-.01.19-.02.31-.02h2.01Zm18.4 5.28a8.49 8.49 0 0 0-.6-.6c-.21-.21-.53-.51-.99-.91l-7.62-6.96h-.04v6.38c0 .44.11.79.33 1.06.23.26.63.4 1.18.43v.44h-3.58v-.44c.37-.03.64-.17.81-.43.17-.27.25-.63.25-1.06v-8.99c0-.63-.1-1.03-.29-1.2-.18-.18-.54-.28-1.06-.29v-.44h2.32c.19.24.4.46.62.66.22.19.47.43.75.7l7.7 6.96h.04v-6.38c0-.44-.11-.79-.33-1.06-.22-.27-.61-.41-1.18-.43v-.44h3.58v.44c-.37.01-.64.15-.81.43-.17.27-.25.63-.25 1.06v10.04c.01.32.03.67.04 1.04h-.87Zm2.65-13.01h11.02v3.19h-.44c-.08-.7-.28-1.26-.62-1.7-.34-.44-.91-.66-1.72-.66h-1.18v10.09c0 .63.1 1.03.29 1.2s.55.26 1.06.29v.44h-5.51v-.44c.37-.03.64-.12.81-.29.17-.17.25-.57.25-1.2V54.12h-1.2c-.79 0-1.35.22-1.7.66-.34.44-.54 1.01-.62 1.7h-.44v-3.19Zm12.1 12.86v-.44c.37-.03.64-.12.81-.29.17-.17.25-.57.25-1.2v-8.99c0-.63-.1-1.03-.29-1.2-.18-.18-.54-.28-1.06-.29v-.44h5.51v.44c-.37.01-.64.11-.81.29-.17.17-.25.57-.25 1.2v8.99c0 .63.1 1.03.29 1.2.19.17.55.26 1.06.29v.44h-5.51Zm6.8 0v-.44c.37-.03.64-.12.81-.29.17-.17.25-.57.25-1.2v-8.99c0-.63-.1-1.03-.29-1.2-.18-.18-.53-.28-1.06-.29v-.44h5.51v.44c-.37.01-.64.11-.81.29-.17.17-.25.57-.25 1.2v8.99c0 .45.1.75.29.89.21.14.6.21 1.18.21h1.26c.58 0 1.04-.1 1.37-.31.34-.22.58-.51.73-.87.15-.36.25-.75.29-1.18h.44l-.15 3.19h-9.57Z"/><path d="M72.34 39.25v-1.24c.97-.04 1.73-.14 2.27-.32.58-.18.97-.56 1.19-1.14.22-.58.32-1.48.32-2.7V8.71c0-1.26-.14-2.16-.43-2.7-.25-.58-.74-.96-1.46-1.14-.72-.18-1.8-.29-3.24-.32V3.31h13.52v1.24c-.97.04-1.73.14-2.27.32s-.94.56-1.19 1.14c-.22.54-.32 1.44-.32 2.7v9.46c.29-.22.63-.36 1.03-.43.43-.07.94-.11 1.51-.11h14.27c.97 0 1.66-.16 2.05-.49.4-.32.59-.97.59-1.95V8.7c0-1.26-.14-2.16-.43-2.7-.25-.58-.74-.96-1.46-1.14-.72-.18-1.8-.29-3.24-.32V3.3h13.52v1.24c-.97.04-1.73.14-2.27.32s-.94.56-1.19 1.14c-.22.54-.32 1.44-.32 2.7v25.14c0 1.23.13 2.13.38 2.7.25.58.74.96 1.46 1.14.76.18 1.84.29 3.24.32v1.24H96.41V38c.97-.04 1.73-.14 2.27-.32.58-.18.97-.56 1.19-1.14.22-.58.32-1.48.32-2.7V18.97c-.29.25-.65.41-1.08.49-.43.07-.92.11-1.46.11H83.38c-.97 0-1.66.16-2.05.49-.4.32-.59.96-.59 1.89v11.89c0 1.23.13 2.13.38 2.7.29.58.79.96 1.51 1.14.72.18 1.78.29 3.19.32v1.24H72.36Zm53.83.81c-3.1 0-5.44-.85-7.03-2.54-1.55-1.73-2.32-4.07-2.32-7.03V8.71c0-1.26-.13-2.16-.38-2.7-.25-.58-.72-.96-1.41-1.14-.65-.18-1.6-.29-2.87-.32V3.31h13.03v1.24c-.97.04-1.73.14-2.27.32s-.94.56-1.19 1.14c-.22.54-.32 1.44-.32 2.7v20.54c0 2.09.43 3.84 1.3 5.24.9 1.37 2.5 2.05 4.81 2.05 1.69 0 3.3-.38 4.81-1.14 1.51-.76 2.85-1.8 4-3.14 1.19-1.37 2.11-2.94 2.76-4.7.68-1.77 1.03-3.68 1.03-5.73V8.71c0-1.26-.13-2.16-.38-2.7-.25-.58-.76-.96-1.51-1.14-.72-.18-1.78-.29-3.19-.32V3.31h13.19v1.24c-.97.04-1.73.14-2.27.32s-.94.56-1.19 1.14c-.22.54-.32 1.44-.32 2.7V33.9c0 1.23.11 2.13.32 2.7.25.54.67.9 1.24 1.08.61.18 1.44.29 2.49.32v1.24h-7.68c-.22-.58-.38-1.26-.49-2.05-.11-.83-.16-1.95-.16-3.35v-4.6h-.11c-1.41 3.39-3.26 6.04-5.57 7.95-2.27 1.91-5.05 2.87-8.33 2.87Zm27-.81v-1.24c.97-.04 1.73-.14 2.27-.32.58-.18.97-.56 1.19-1.14.22-.58.32-1.48.32-2.7V8.71c0-1.26-.14-2.16-.43-2.7-.25-.58-.74-.96-1.46-1.14-.72-.18-1.8-.29-3.24-.32V3.31h5.14c1.77 0 3.21-.02 4.32-.05 1.12-.07 2.14-.13 3.08-.16.97-.04 2.09-.05 3.35-.05 3.82 0 6.61.67 8.38 2 1.77 1.3 2.65 3.01 2.65 5.14s-.72 3.95-2.16 5.24c-1.44 1.3-3.21 2.32-5.3 3.08v.11c2.2.11 4.14.54 5.84 1.3 1.73.72 3.1 1.75 4.11 3.08s1.51 2.96 1.51 4.87-.5 3.69-1.51 5.46c-.97 1.73-2.52 3.15-4.65 4.27-2.09 1.12-4.83 1.68-8.22 1.68h-15.19Zm8.38-20c.47-.32.9-.52 1.3-.59.43-.11.94-.18 1.51-.22 1.08-.11 2.16-.27 3.24-.49 1.12-.25 2.13-.65 3.03-1.19a6.35 6.35 0 0 0 2.27-2.22c.58-.97.87-2.2.87-3.68 0-1.69-.4-2.96-1.19-3.78-.79-.83-1.78-1.39-2.97-1.68-1.19-.29-2.41-.43-3.68-.43-1.55 0-2.67.2-3.35.59-.68.4-1.03 1.44-1.03 3.14v10.54Zm6.38 18.06c2.56 0 4.54-.47 5.95-1.41 1.44-.94 2.45-2.09 3.03-3.46.58-1.41.87-2.79.87-4.16 0-1.98-.5-3.55-1.51-4.7-.97-1.19-2.31-2.04-4-2.54-1.66-.54-3.53-.81-5.62-.81-1.77 0-3.06.23-3.89.7-.79.43-1.19 1.26-1.19 2.49v10.43c0 1.05.18 1.82.54 2.32.36.47.99.77 1.89.92.94.14 2.25.22 3.95.22Z" style="fill:#fff"/><path d="M51.96 19.28c-4.1-.06-5.99 3.37-5.7 6.54a35.668 35.668 0 0 0-15.98 13.91V11.64C36.45 10.31 35.97-.1 28.85 0c-7.12-.1-7.6 10.31-1.45 11.64v28.04a35.775 35.775 0 0 0-15.97-13.87c.3-3.17-1.6-6.59-5.7-6.54-7.64-.11-7.64 11.89 0 11.78 2.28.03 3.88-1.02 4.8-2.5 7.62 3.43 13.7 9.72 16.86 17.48V61.9h2.89V46.1a32.806 32.806 0 0 1 16.89-17.55c.92 1.48 2.51 2.53 4.8 2.5 7.64.11 7.64-11.89 0-11.78ZM5.73 28.16c-3.88.05-3.88-6.04 0-5.99 3.88-.05 3.88 6.04 0 5.99Zm46.23 0c-3.88.05-3.88-6.04 0-5.99 3.88-.05 3.88 6.04 0 5.99Z" style="fill:url(#linear-gradient)"/><path class="cls-2" d="M19.83 67.83h17.91v.95H19.83z"/></g></symbol><symbol fill="none" id="logo" viewBox="0 0 180 90"><g clip-path="url(#a)" stroke-width="1.935" stroke-miterlimit="10"><path d="M42.362 63.134V52.988l.015-24.307" stroke="url(#b)"/><path d="M42.377 28.681a2.967 2.967 0 1 0 0-5.934 2.967 2.967 0 0 0 0 5.934Z" fill="#F4E785" stroke="#F4E785"/><path d="M29.588 39.57a22.787 22.787 0 0 1 12.789 12.788" stroke="#E6CF80"/><path d="M26.934 41.559a2.967 2.967 0 1 0 0-5.935 2.967 2.967 0 0 0 0 5.935Zm28.232-1.989a22.787 22.787 0 0 0-12.789 12.788" stroke="#E6CF80"/><path d="M57.82 41.559a2.967 2.967 0 1 1 0-5.935 2.967 2.967 0 0 1 0 5.935Z" stroke="#E6CF80"/></g><path stroke="#DEC17E" stroke-width=".636" d="M36.352 67.412h11.966"/><path d="M71.733 48.699v-.83c.65-.024 1.155-.096 1.515-.216.385-.12.65-.373.794-.758.144-.384.216-.986.216-1.803V28.318c0-.842-.096-1.443-.288-1.804-.168-.384-.493-.637-.974-.757s-1.203-.193-2.164-.217v-.83h9.018v.83c-.65.024-1.155.097-1.515.217-.361.12-.626.373-.794.757-.144.361-.216.962-.216 1.804v6.313a1.6 1.6 0 0 1 .685-.289 6.213 6.213 0 0 1 1.01-.072h9.523c.65 0 1.106-.108 1.37-.325.265-.216.398-.649.398-1.298v-4.329c0-.842-.097-1.443-.289-1.804-.168-.384-.493-.637-.974-.757-.48-.12-1.202-.193-2.164-.217v-.83h9.018v.83c-.65.024-1.154.097-1.515.217-.36.12-.625.373-.794.757-.144.361-.216.962-.216 1.804v16.774c0 .817.084 1.419.252 1.803.169.385.493.638.974.758.505.12 1.227.192 2.165.216v.83h-8.982v-.83c.649-.024 1.154-.096 1.515-.216a1.19 1.19 0 0 0 .793-.758c.145-.384.217-.986.217-1.803v-9.92a1.425 1.425 0 0 1-.722.324 5.958 5.958 0 0 1-.974.072h-9.523c-.65 0-1.106.109-1.37.325-.265.217-.397.638-.397 1.263v7.936c0 .817.084 1.419.252 1.803.192.385.53.638 1.01.758.481.12 1.19.192 2.128.216v.83h-8.982Zm35.921.541c-2.068 0-3.632-.565-4.69-1.695-1.034-1.155-1.551-2.718-1.551-4.69V28.318c0-.842-.084-1.443-.252-1.804-.169-.384-.481-.637-.938-.757-.433-.12-1.07-.193-1.912-.217v-.83h8.693v.83c-.649.024-1.154.097-1.515.217-.36.12-.625.373-.793.757-.145.361-.217.962-.217 1.804v13.707c0 1.395.289 2.562.866 3.5.601.913 1.671 1.37 3.211 1.37 1.13 0 2.2-.252 3.21-.757a8.574 8.574 0 0 0 2.669-2.092 9.992 9.992 0 0 0 1.84-3.139c.457-1.178.685-2.453.685-3.823v-8.766c0-.842-.084-1.443-.252-1.804-.168-.384-.505-.637-1.01-.757-.481-.12-1.191-.193-2.128-.217v-.83h8.801v.83c-.649.024-1.154.097-1.515.217-.36.12-.625.373-.793.757-.145.361-.217.962-.217 1.804v16.81c0 .817.072 1.419.217 1.803.168.361.445.602.829.722.409.12.962.192 1.66.216v.83h-5.123a6.396 6.396 0 0 1-.324-1.37c-.072-.554-.109-1.3-.109-2.237v-3.066h-.072c-.938 2.26-2.176 4.028-3.715 5.302-1.515 1.275-3.367 1.912-5.555 1.912Zm18.015-.541v-.83c.649-.024 1.154-.096 1.515-.216.385-.12.649-.373.793-.758.145-.384.217-.986.217-1.803V28.318c0-.842-.096-1.443-.289-1.804-.168-.384-.493-.637-.974-.757s-1.202-.193-2.164-.217v-.83h3.427c1.178 0 2.14-.011 2.886-.035a79.854 79.854 0 0 1 2.056-.109 61.272 61.272 0 0 1 2.236-.036c2.549 0 4.413.445 5.592 1.335 1.178.866 1.767 2.008 1.767 3.427 0 1.467-.481 2.633-1.443 3.499-.962.866-2.14 1.551-3.535 2.056v.072c1.467.072 2.766.361 3.896.866 1.154.48 2.068 1.166 2.742 2.056.673.89 1.01 1.972 1.01 3.247 0 1.25-.337 2.465-1.01 3.643-.65 1.154-1.684 2.104-3.103 2.85-1.395.745-3.222 1.118-5.483 1.118h-10.136Zm5.591-13.347c.313-.216.601-.349.866-.397.288-.072.625-.12 1.01-.144.721-.072 1.443-.18 2.164-.325a6.808 6.808 0 0 0 2.02-.793 4.237 4.237 0 0 0 1.515-1.48c.385-.649.577-1.466.577-2.452 0-1.13-.264-1.972-.793-2.525-.529-.553-1.191-.926-1.984-1.119a10.375 10.375 0 0 0-2.453-.288c-1.034 0-1.78.132-2.237.397-.456.264-.685.962-.685 2.092v7.034Zm4.257 12.048c1.707 0 3.03-.312 3.968-.938.962-.625 1.635-1.394 2.02-2.308.384-.938.577-1.864.577-2.778 0-1.322-.337-2.368-1.01-3.138-.649-.794-1.539-1.359-2.67-1.696-1.106-.36-2.356-.54-3.751-.54-1.178 0-2.044.156-2.597.468-.529.289-.794.842-.794 1.66v6.962c0 .697.12 1.214.361 1.55.24.313.661.518 1.262.614.626.096 1.503.144 2.634.144Z" fill="#fff"/><path d="M76.139 66.498c-.07-.2-.156-.403-.26-.611a33.58 33.58 0 0 0-.39-.846l-2.342-4.891h-.026l-.234 4.943c-.01.295.06.533.208.716.147.173.416.269.806.286v.299h-2.406v-.3c.251-.016.429-.112.533-.285.113-.183.173-.421.182-.716l.273-6.05c.018-.303-.004-.52-.065-.65a.394.394 0 0 0-.286-.247 3.085 3.085 0 0 0-.56-.104v-.3h2.785c.069.226.147.439.234.638.095.2.2.421.312.664l2.238 4.683h.026l2.081-4.683c.2-.442.351-.876.455-1.301h2.758v.3a1.368 1.368 0 0 0-.416.077.436.436 0 0 0-.247.273c-.044.13-.06.347-.052.65l.273 6.05c.017.278.052.486.104.625.06.138.156.234.286.286.13.043.304.073.52.09v.3h-3.707v-.3c.278-.016.468-.082.573-.194.112-.113.16-.382.143-.807l-.222-5.32h-.026l-2.354 5.268c-.165.364-.287.65-.364.859-.07.2-.13.399-.183.598h-.65Zm7.454-.104v-.3c.251-.016.433-.082.546-.194.113-.113.17-.382.17-.807v-6.05c0-.424-.066-.693-.196-.806-.121-.121-.36-.186-.716-.195v-.3h6.388v1.822h-.3c-.016-.373-.147-.676-.39-.91-.234-.235-.598-.352-1.092-.352h-1.041a.617.617 0 0 0-.43.143c-.095.096-.142.295-.142.599v2.563a.577.577 0 0 1 .247-.104c.104-.018.225-.026.364-.026h1.262a.97.97 0 0 0 .65-.222c.174-.147.265-.35.274-.611h.299v2.212h-.3c-.008-.321-.1-.538-.273-.65a1.17 1.17 0 0 0-.65-.17h-1.236c-.234 0-.399.039-.494.117-.096.078-.143.23-.143.455v2.485c0 .304.065.503.195.599.139.095.403.143.793.143h1.236c.52 0 .932-.156 1.236-.469a1.76 1.76 0 0 0 .507-1.118h.3l-.104 2.146h-6.96Zm15.271.195c-.39 0-.724-.065-1.002-.195a2.057 2.057 0 0 1-.702-.494 5.39 5.39 0 0 1-.534-.69l-1.82-2.836c-.088-.147-.166-.238-.235-.273a.69.69 0 0 0-.247-.065v-.455c.52-.035.923-.14 1.21-.313.286-.173.485-.386.598-.637.113-.26.17-.53.17-.807 0-.529-.148-.923-.443-1.183a1.463 1.463 0 0 0-1.015-.404c-.286 0-.49.052-.611.156-.113.096-.17.313-.17.65v6.05c0 .425.066.694.196.807.13.112.368.177.715.195v.299h-3.707v-.3c.251-.016.433-.082.546-.194.113-.113.17-.382.17-.807v-6.05c0-.424-.066-.693-.196-.806-.122-.121-.36-.186-.716-.195v-.3h.911c.65 0 1.24-.008 1.77-.025.528-.026.98-.04 1.352-.04.859 0 1.54.083 2.043.248.511.156.876.377 1.093.664.225.286.338.61.338.975 0 .347-.087.664-.26.95a2.31 2.31 0 0 1-.664.728 2.56 2.56 0 0 1-.885.404v.026l2.16 3.382c.251.399.481.672.69.82.208.147.394.22.559.22v.3c-.174.06-.382.108-.624.143a4.7 4.7 0 0 1-.69.052Zm5.623 0c-.91 0-1.717-.182-2.419-.546a4.081 4.081 0 0 1-1.652-1.535c-.399-.668-.599-1.44-.599-2.316 0-.72.13-1.362.39-1.925a4.437 4.437 0 0 1 1.067-1.47c.46-.408.984-.716 1.574-.924a5.575 5.575 0 0 1 1.913-.325 7.36 7.36 0 0 1 1.47.143c.468.095.841.208 1.118.338v2.056h-.299c-.173-.53-.381-.933-.624-1.21a1.98 1.98 0 0 0-.82-.599 2.598 2.598 0 0 0-.936-.169c-1.674 0-2.511 1.214-2.511 3.643 0 .798.082 1.522.247 2.172.173.65.438 1.167.793 1.548.365.373.829.56 1.392.56.46 0 .876-.113 1.249-.338.373-.235.69-.542.95-.924.269-.382.46-.794.572-1.236h.3l-.104 1.977c-.287.313-.69.573-1.21.781-.521.2-1.141.3-1.861.3Zm10.88-1.496c.121.295.221.512.299.65.087.14.178.23.273.274.096.035.213.06.352.078v.299h-3.63v-.3c.347-.016.538-.12.572-.311.044-.191.013-.421-.091-.69l-.65-1.691a.464.464 0 0 1-.208.091 2.365 2.365 0 0 1-.26.013h-1.471c-.182 0-.32.022-.416.065-.095.043-.178.152-.247.325l-.468 1.197c-.113.286-.104.52.026.703.13.182.386.281.767.299v.299h-2.367v-.3a.663.663 0 0 0 .481-.285 2.88 2.88 0 0 0 .377-.716l2.498-6.322c.095-.226.178-.447.247-.664.078-.217.148-.438.208-.663h.755c.061.225.13.446.208.663.078.217.16.438.247.664l2.498 6.322Zm-3.409-2.146c.122 0 .2-.018.235-.052.043-.044.039-.13-.013-.26l-.898-2.225h-.026l-1.015 2.589a.301.301 0 0 1 .156-.04c.061-.008.13-.012.209-.012h1.352Zm12.38 3.551a8.709 8.709 0 0 0-.403-.403c-.139-.139-.36-.343-.663-.612l-5.126-4.683h-.026v4.293c0 .295.074.533.221.716.156.173.421.269.794.286v.299h-2.407v-.3c.251-.016.434-.112.546-.285.113-.183.169-.421.169-.716v-6.05c0-.424-.065-.693-.195-.806-.121-.121-.36-.186-.715-.195v-.3h1.561c.13.166.269.313.416.443.148.13.317.286.508.468l5.177 4.684h.026v-4.293c0-.295-.074-.534-.221-.716-.147-.182-.412-.277-.794-.286v-.3h2.407v.3c-.251.009-.433.104-.546.286-.113.182-.169.42-.169.716v6.752l.026.702h-.586Zm1.784-8.755h7.415v2.146h-.299c-.052-.468-.191-.85-.417-1.144-.225-.295-.611-.443-1.157-.443h-.794v6.791c0 .425.065.694.195.807.13.112.369.177.716.195v.299h-3.708v-.3c.252-.016.434-.082.546-.194.113-.113.17-.382.17-.807v-6.79h-.807c-.529 0-.911.147-1.145.442-.225.294-.364.676-.416 1.144h-.299v-2.146Zm8.14 8.651v-.3c.252-.016.434-.082.546-.194.113-.113.17-.382.17-.807v-6.05c0-.424-.065-.693-.196-.806-.121-.121-.359-.186-.715-.195v-.3h3.708v.3c-.252.009-.434.074-.547.195-.113.113-.169.382-.169.807v6.05c0 .424.065.693.195.806.13.112.369.177.716.195v.299h-3.708Zm4.573 0v-.3c.251-.016.433-.082.546-.194.113-.113.169-.382.169-.807v-6.05c0-.424-.065-.693-.195-.806-.121-.121-.36-.186-.715-.195v-.3h3.707v.3c-.251.009-.434.074-.546.195-.113.113-.169.382-.169.807v6.05c0 .303.065.502.195.598.139.095.403.143.793.143h.846c.39 0 .698-.07.924-.209.225-.147.39-.342.494-.585a2.6 2.6 0 0 0 .195-.793h.299l-.104 2.146h-6.439Z" fill="#E4C482"/><path d="M43.327 65.063c0 .61.056 1.056.167 1.335.112.28.31.463.597.55.302.088.724.14 1.265.157v.603h-5.37v-.603c.35-.017.629-.07.836-.157.206-.087.357-.27.453-.55.095-.28.143-.724.143-1.335v-5.92l1.91-.026v5.946Z" fill="#DEC17E"/><defs><linearGradient id="b" x1="42.37" y1="28.681" x2="42.37" y2="63.134" gradientUnits="userSpaceOnUse"><stop stop-color="#F7EC86"/><stop offset="1" stop-color="#DBBB7C"/></linearGradient><clipPath id="a"><path fill="#fff" transform="translate(22.688 20.09)" d="M0 0h39.258v45.617H0z"/></clipPath></defs></symbol><symbol fill="none" id="minus" viewBox="0 0 52 52"><rect x=".678" y=".938" width="50.95" height="50.95" rx="25.475" fill="#161616"/><path stroke="#fff" stroke-width="2.685" d="M17.209 26.584h17.888"/></symbol><symbol fill="none" id="plus" viewBox="0 0 52 52"><rect x=".678" y=".938" width="50.95" height="50.95" rx="25.475" fill="#fff"/><path stroke="#444" stroke-width="2.685" d="M26.016 17.047v18.734m-8.807-9.197h17.888"/></symbol><symbol fill="none" id="star" viewBox="0 0 15 14"><path d="M7.294.398a.3.3 0 0 1 .57 0l1.462 4.497a.3.3 0 0 0 .285.208h4.729a.3.3 0 0 1 .176.542l-3.825 2.78a.3.3 0 0 0-.11.335l1.462 4.498a.3.3 0 0 1-.462.335l-3.825-2.78a.3.3 0 0 0-.353 0l-3.826 2.78a.3.3 0 0 1-.461-.335L4.577 8.76a.3.3 0 0 0-.109-.335L.642 5.645a.3.3 0 0 1 .177-.542h4.728a.3.3 0 0 0 .286-.208L7.294.398Z" fill="#133419"/></symbol><symbol fill="none" id="x" viewBox="0 0 18 19"><path d="m10.675 8.178 6.553-7.46h-1.552L9.984 7.195 5.44.72H.199l6.872 9.793-6.872 7.821h1.553l6.007-6.84 4.799 6.84h5.241M2.312 1.865h2.385l10.978 15.378h-2.386" fill="#EBD5D1" fill-opacity=".62"/></symbol></svg>