<svg id="star" data-name="star" xmlns="http://www.w3.org/2000/svg" width="40" height="40.114" viewBox="0 0 40 40.114">
  <path d="M0,20.064l4.9-1.173q5.437-1.3,10.875-2.6a.478.478,0,0,0,.39-.435Q17.994,8.183,19.837.514c.031-.13.072-.257.145-.514.073.241.119.37.15.5q1.842,7.669,3.673,15.34a.529.529,0,0,0,.466.455q7.674,1.826,15.343,3.673a.825.825,0,0,1,.384.19c-.712.174-1.424.351-2.136.522q-6.82,1.636-13.642,3.264a.48.48,0,0,0-.409.418q-1.828,7.672-3.673,15.34a.9.9,0,0,1-.2.41c-.2-.807-.4-1.613-.591-2.421q-1.6-6.661-3.188-13.324a.5.5,0,0,0-.442-.431Q8.046,22.11.377,20.263C.25,20.233.126,20.19,0,20.154c0-.03,0-.06,0-.089" fill="currentColor"/>
</svg>
