<svg xmlns="http://www.w3.org/2000/svg" xmlns:xlink="http://www.w3.org/1999/xlink" width="22.6" height="22.6" viewBox="0 0 22.6 22.6"><defs><clipPath id="a"><rect width="22.6" height="22.6" transform="translate(0 0)" fill="none"/></clipPath></defs><g clip-path="url(#a)"><path d="M5.245-.8h10.51A6.052,6.052,0,0,1,21.8,5.245V15.754A6.053,6.053,0,0,1,15.754,21.8H5.245A6.052,6.052,0,0,1-.8,15.755V5.245A6.052,6.052,0,0,1,5.245-.8Zm10.509,21A4.451,4.451,0,0,0,20.2,15.754V5.245A4.45,4.45,0,0,0,15.755.8H5.245A4.45,4.45,0,0,0,.8,5.245v10.51A4.45,4.45,0,0,0,5.245,20.2Z" transform="translate(0.8 0.8)" fill="#c7c7c7"/><path d="M17.075,6.72a1.194,1.194,0,1,1,.846-2.036,1.194,1.194,0,0,1-.846,2.036Z" fill="#c7c7c7"/><path d="M11.3,16.3a5,5,0,1,1,3.535-1.464A4.97,4.97,0,0,1,11.3,16.3Zm0-8.4a3.4,3.4,0,1,0,2.4,1A3.38,3.38,0,0,0,11.3,7.9Z" fill="#c7c7c7"/></g></svg>