<svg xmlns="http://www.w3.org/2000/svg" xmlns:xlink="http://www.w3.org/1999/xlink" width="22.75" height="22.75" viewBox="0 0 22.75 22.75"><defs><clipPath id="a"><rect width="22.75" height="22.75" fill="none"/></clipPath></defs><g clip-path="url(#a)"><path d="M18.1,10.22a.871.871,0,0,1-.467-.136c-2.524-1.6-8.068-2.463-12.3-1.212a.875.875,0,1,1-.5-1.678c4.838-1.432,10.894-.383,13.73,1.41A.875.875,0,0,1,18.1,10.22Z" fill="#c7c7c7"/><path d="M16.773,13.544a.8.8,0,0,1-.432-.127A12.176,12.176,0,0,0,11.6,11.8a13.324,13.324,0,0,0-5.74.4.8.8,0,0,1-.476-1.528,14.931,14.931,0,0,1,6.435-.456,13.619,13.619,0,0,1,5.387,1.852.8.8,0,0,1-.434,1.473Z" fill="#c7c7c7"/><path d="M15.637,16.552a.871.871,0,0,1-.449-.125c-2.463-1.478-5.432-1.8-9.075-.982a.875.875,0,0,1-.383-1.708c4.1-.92,7.491-.531,10.359,1.19a.875.875,0,0,1-.451,1.625Z" fill="#c7c7c7"/><path d="M6.125,0H16.63a6.127,6.127,0,0,1,6.12,6.12V16.631a6.126,6.126,0,0,1-6.12,6.119H6.12A6.127,6.127,0,0,1,0,16.63V6.125A6.132,6.132,0,0,1,6.125,0ZM16.63,21A4.374,4.374,0,0,0,21,16.631V6.12a4.375,4.375,0,0,0-4.37-4.37H6.125A4.38,4.38,0,0,0,1.75,6.125V16.63A4.375,4.375,0,0,0,6.12,21Z" fill="#c7c7c7"/></g></svg>