<svg xmlns="http://www.w3.org/2000/svg" xmlns:xlink="http://www.w3.org/1999/xlink" width="22.6" height="22.6" viewBox="0 0 22.6 22.6"><defs><clipPath id="a"><rect width="22.6" height="22.6" transform="translate(0 0)" fill="none"/></clipPath></defs><path d="M5.25.8H0A.8.8,0,0,1-.8,0,.8.8,0,0,1,0-.8H5.25a.8.8,0,0,1,.8.8A.8.8,0,0,1,5.25.8Z" transform="translate(8.675 10.717)" fill="#c7c7c7"/><g clip-path="url(#a)"><path d="M10.425,17.35a.8.8,0,0,1-.8-.8V8.383A3.137,3.137,0,0,1,12.758,5.25h1.167a.8.8,0,1,1,0,1.6H12.758a1.535,1.535,0,0,0-1.533,1.533V16.55A.8.8,0,0,1,10.425,17.35Z" fill="#c7c7c7"/><path d="M5.833-.8h9.333A6.642,6.642,0,0,1,21.8,5.834v9.332A6.642,6.642,0,0,1,15.166,21.8H5.833A6.641,6.641,0,0,1-.8,15.167V5.833A6.641,6.641,0,0,1,5.833-.8Zm9.333,21A5.04,5.04,0,0,0,20.2,15.166V5.834A5.04,5.04,0,0,0,15.166.8H5.833A5.039,5.039,0,0,0,.8,5.833v9.334A5.039,5.039,0,0,0,5.833,20.2Z" transform="translate(0.8 0.8)" fill="#c7c7c7"/></g></svg>