<svg xmlns="http://www.w3.org/2000/svg" xmlns:xlink="http://www.w3.org/1999/xlink" width="12" height="12" viewBox="0 0 12 12"><g clip-path="url(#a)"><path d="M10,12H2a1.993,1.993,0,0,1-2-2V2A1.993,1.993,0,0,1,2,0H4.67a.67.67,0,1,1,0,1.34H2a.67.67,0,0,0-.67.67V10a.67.67,0,0,0,.67.67h8a.67.67,0,0,0,.67-.67V7.33a.67.67,0,1,1,1.34,0V10a1.993,1.993,0,0,1-2,2Z" fill="#3d7b56"/><path d="M12,.7V4.03a.668.668,0,0,1-.41.61.559.559,0,0,1-.25.05.665.665,0,0,1-.47-.19L9.64,3.33,6.45,6.52a.665.665,0,0,1-.94-.94L8.68,2.37,7.51,1.18A.68.68,0,0,1,7.35.45.667.667,0,0,1,8.02.04h3.59a.633.633,0,0,1,.35.35V.48a.585.585,0,0,1,.05.22h0Z" fill="#3d7b56"/></g></svg>