<svg xmlns="http://www.w3.org/2000/svg" xmlns:xlink="http://www.w3.org/1999/xlink" width="33.323" height="33.367" viewBox="0 0 33.323 33.367"><defs><clipPath id="a"><rect width="33.323" height="33.367" fill="none"/></clipPath></defs><g clip-path="url(#a)"><path d="M33.322,16.716q0,6.875,0,13.751a2.767,2.767,0,0,1-2.085,2.8,3.049,3.049,0,0,1-.8.1q-13.765.007-27.53,0A2.793,2.793,0,0,1,0,30.45Q0,16.683,0,2.916A2.793,2.793,0,0,1,2.9,0Q16.653,0,30.4,0a2.8,2.8,0,0,1,2.92,2.932q0,6.892,0,13.783M30.513,30.56V2.81H2.8V30.559H16.636V19.449H13.893V16.675h2.77c0-.988-.014-1.933,0-2.877a6.92,6.92,0,0,1,6.7-6.827c.932-.023,1.865-.01,2.8-.012a1.693,1.693,0,0,1,.2.023V9.725c-.145,0-.272,0-.4,0C25,9.74,24.046,9.711,23.1,9.78a4.11,4.11,0,0,0-3.636,3.843c-.023.944-.011,1.89-.012,2.835a1.824,1.824,0,0,0,.034.239h6.867v2.782H19.465V30.56Z" transform="translate(0.001 0.001)" fill="#1a1818"/></g></svg>