<svg xmlns="http://www.w3.org/2000/svg" xmlns:xlink="http://www.w3.org/1999/xlink" width="33.371" height="33.378" viewBox="0 0 33.371 33.378"><defs><clipPath id="a"><rect width="33.371" height="33.378" fill="none"/></clipPath></defs><g clip-path="url(#a)"><path d="M0,16.693Q0,12.62,0,8.547a8.248,8.248,0,0,1,3.464-6.94A7.89,7.89,0,0,1,8.263.016c5.615-.015,11.23-.025,16.845,0a8.336,8.336,0,0,1,8.1,6.75,8.861,8.861,0,0,1,.153,1.65q.016,8.276.005,16.552a8.371,8.371,0,0,1-5.827,8.014,8.162,8.162,0,0,1-2.529.393q-8.325,0-16.649,0a8.358,8.358,0,0,1-8.2-6.755A9.408,9.408,0,0,1,.009,24.9C-.006,22.166,0,19.43,0,16.693M16.685,2.8V2.8c-2.7,0-5.408-.007-8.112.007a6.8,6.8,0,0,0-1.515.15,5.441,5.441,0,0,0-4.25,5.253c-.03,5.647-.018,11.294,0,16.941A5.536,5.536,0,0,0,8.51,30.6c5.451-.032,10.9-.006,16.355-.016a6.388,6.388,0,0,0,1.45-.149,5.441,5.441,0,0,0,4.249-5.253c.03-5.636.014-11.272.005-16.909a5.285,5.285,0,0,0-.144-1.222,5.469,5.469,0,0,0-5.236-4.234c-2.834-.039-5.669-.009-8.5-.009" transform="translate(0 -0.001)" fill="#1a1818"/><path d="M80.7,72.409a8.341,8.341,0,1,1-8.349-8.34,8.36,8.36,0,0,1,8.349,8.34M72.347,77.96A5.55,5.55,0,1,0,66.81,72.38a5.533,5.533,0,0,0,5.536,5.581" transform="translate(-55.675 -55.718)" fill="#1a1818"/><path d="M183.521,46.874a2.056,2.056,0,0,1-2.074-2.056,2.084,2.084,0,0,1,2.073-2.1,2.117,2.117,0,0,1,2.09,2.1,2.086,2.086,0,0,1-2.088,2.057" transform="translate(-157.796 -37.147)" fill="#1a1818"/></g></svg>