<svg xmlns="http://www.w3.org/2000/svg" xmlns:xlink="http://www.w3.org/1999/xlink" width="24.933" height="20.691" viewBox="0 0 24.933 20.691"><defs><clipPath id="a"><rect width="24.933" height="20.691" transform="translate(0 0)" fill="none"/></clipPath></defs><g transform="translate(0 0)"><g clip-path="url(#a)"><path d="M12.467,0c.759,0,7.473.017,9.354.6a4.018,4.018,0,0,1,2.606,3,41.524,41.524,0,0,1,.506,6.743,41.523,41.523,0,0,1-.506,6.743,4.012,4.012,0,0,1-2.606,3c-1.881.587-8.594.6-9.354.6s-7.47-.017-9.354-.6a4.014,4.014,0,0,1-2.606-3A41.443,41.443,0,0,1,0,10.346,41.442,41.442,0,0,1,.507,3.6,4.011,4.011,0,0,1,3.113.6C5,.017,11.708,0,12.467,0Zm0,19.091c2,0,7.481-.1,8.878-.532a2.415,2.415,0,0,0,1.523-1.828,40.964,40.964,0,0,0,.466-6.385,41,41,0,0,0-.466-6.387,2.419,2.419,0,0,0-1.525-1.828C19.948,1.7,14.463,1.6,12.467,1.6s-7.479.1-8.878.532A2.414,2.414,0,0,0,2.067,3.96,40.916,40.916,0,0,0,1.6,10.346a40.915,40.915,0,0,0,.467,6.386A2.416,2.416,0,0,0,3.591,18.56C4.988,19,10.472,19.091,12.467,19.091Z" fill="#c7c7c7"/><path d="M10.135,14.646a.8.8,0,0,1-.8-.8v-7a.8.8,0,0,1,1.2-.693l6.062,3.5a.8.8,0,0,1,0,1.386l-6.062,3.5A.8.8,0,0,1,10.135,14.646Zm.8-6.414V12.46L14.6,10.346Z" fill="#c7c7c7"/></g></g></svg>