<svg width="24" height="25" viewBox="0 0 24 25" fill="none" xmlns="http://www.w3.org/2000/svg">
<path d="M12.0012 7.02189C8.96107 7.02189 6.50749 9.47546 6.50749 12.5156C6.50749 15.5558 8.96107 18.0094 12.0012 18.0094C15.0414 18.0094 17.495 15.5558 17.495 12.5156C17.495 9.47546 15.0414 7.02189 12.0012 7.02189ZM12.0012 16.0862C10.0352 16.0862 8.43071 14.4817 8.43071 12.5156C8.43071 10.5496 10.0352 8.94511 12.0012 8.94511C13.9673 8.94511 15.5718 10.5496 15.5718 12.5156C15.5718 14.4817 13.9673 16.0862 12.0012 16.0862ZM17.72 5.51653C17.0102 5.51653 16.437 6.08975 16.437 6.79957C16.437 7.50939 17.0102 8.0826 17.72 8.0826C18.4298 8.0826 19.003 7.51207 19.003 6.79957C19.0032 6.63102 18.9702 6.46408 18.9058 6.30832C18.8414 6.15256 18.7469 6.01104 18.6277 5.89185C18.5085 5.77267 18.367 5.67817 18.2112 5.61377C18.0555 5.54936 17.8885 5.51632 17.72 5.51653ZM22.7102 12.5156C22.7102 11.0371 22.7236 9.57189 22.6405 8.096C22.5575 6.38171 22.1664 4.86028 20.9129 3.60671C19.6566 2.35046 18.1379 1.96207 16.4236 1.87903C14.945 1.796 13.4798 1.80939 12.0039 1.80939C10.5254 1.80939 9.06017 1.796 7.58428 1.87903C5.86999 1.96207 4.34857 2.35314 3.09499 3.60671C1.83874 4.86296 1.45035 6.38171 1.36731 8.096C1.28428 9.57457 1.29767 11.0397 1.29767 12.5156C1.29767 13.9915 1.28428 15.4594 1.36731 16.9353C1.45035 18.6496 1.84142 20.171 3.09499 21.4246C4.35124 22.6808 5.86999 23.0692 7.58428 23.1522C9.06285 23.2353 10.528 23.2219 12.0039 23.2219C13.4825 23.2219 14.9477 23.2353 16.4236 23.1522C18.1379 23.0692 19.6593 22.6781 20.9129 21.4246C22.1691 20.1683 22.5575 18.6496 22.6405 16.9353C22.7262 15.4594 22.7102 13.9942 22.7102 12.5156ZM20.353 18.8317C20.1575 19.3192 19.9218 19.6835 19.5441 20.0585C19.1664 20.4362 18.8048 20.6719 18.3173 20.8674C16.9084 21.4272 13.5629 21.3014 12.0012 21.3014C10.4396 21.3014 7.09142 21.4272 5.68249 20.8701C5.19499 20.6746 4.83071 20.4389 4.45571 20.0612C4.07803 19.6835 3.84232 19.3219 3.64678 18.8344C3.08964 17.4228 3.21553 14.0772 3.21553 12.5156C3.21553 10.954 3.08964 7.60582 3.64678 6.19689C3.84232 5.70939 4.07803 5.3451 4.45571 4.9701C4.83339 4.5951 5.19499 4.35671 5.68249 4.16118C7.09142 3.60403 10.4396 3.72993 12.0012 3.72993C13.5629 3.72993 16.9111 3.60403 18.32 4.16118C18.8075 4.35671 19.1718 4.59243 19.5468 4.9701C19.9245 5.34778 20.1602 5.70939 20.3557 6.19689C20.9129 7.60582 20.787 10.954 20.787 12.5156C20.787 14.0772 20.9129 17.4228 20.353 18.8317Z" fill="#EBD5D1" fill-opacity="0.62"/>
</svg>
