<?xml version="1.0" encoding="UTF-8"?><svg id="Layer_2" xmlns="http://www.w3.org/2000/svg" viewBox="0 0 182.75 68.77"><defs><style>.cls-1{fill:#231f20;}</style></defs><g id="Layer_2-2"><g><path class="cls-1" d="M100.24,64.62c-.45,.47-1.07,.7-1.84,.7h-1.84c-.58,0-.97-.07-1.18-.21-.19-.14-.29-.44-.29-.89v-3.69c0-.34,.07-.56,.21-.68,.14-.11,.38-.17,.73-.17h1.84c.39,0,.71,.08,.97,.25,.26,.17,.4,.49,.41,.97h.44v-3.29h-.44c-.02,.39-.15,.69-.41,.91-.26,.22-.58,.33-.97,.33h-1.88c-.2,0-.39,.01-.54,.04-.14,.02-.27,.07-.37,.15v-3.81c0-.45,.07-.75,.21-.89,.16-.14,.37-.21,.64-.21h1.55c.73,0,1.27,.17,1.62,.52,.36,.34,.55,.8,.58,1.35h.44v-2.71h-9.5v.44c.53,.01,.88,.11,1.06,.29,.19,.17,.29,.57,.29,1.2v8.99c0,.63-.08,1.03-.25,1.2-.17,.17-.44,.26-.81,.29v.44h10.37l.15-3.18h-.44c-.05,.64-.3,1.2-.75,1.66Z"/><path class="cls-1" d="M88.71,65.15c-.07-.21-.12-.52-.15-.93l-.41-8.99c0-.45,.02-.78,.08-.97,.08-.21,.2-.35,.37-.41,.17-.07,.38-.11,.62-.12v-.44h-4.1c-.16,.63-.38,1.27-.68,1.93l-3.09,6.96h-.04l-3.33-6.96c-.16-.36-.32-.69-.46-.99-.13-.3-.25-.61-.35-.95h-4.14v.44c.35,.03,.62,.09,.83,.15,.21,.05,.35,.18,.43,.37,.1,.2,.13,.52,.1,.97l-.41,8.99c-.01,.43-.1,.79-.27,1.06-.15,.26-.42,.4-.79,.43v.44h3.58v-.44c-.58-.03-.98-.17-1.2-.43-.22-.27-.32-.62-.31-1.06l.35-7.35h.04l3.48,7.27c.24,.52,.44,.94,.58,1.26,.16,.31,.29,.61,.39,.91l-.02,.03h.97c.08-.3,.17-.59,.27-.89,.11-.31,.3-.74,.54-1.28l3.5-7.83h.04l.33,7.91c.03,.63-.04,1.03-.21,1.2-.15,.17-.44,.26-.85,.29v.44h5.51v-.44c-.32-.03-.58-.08-.77-.14-.2-.08-.34-.22-.43-.43Z"/><polygon class="cls-1" points="113.61 66.43 113.6 66.43 113.59 66.43 113.61 66.43"/><path class="cls-1" d="M182.01,64.14c-.15,.36-.39,.65-.73,.87-.33,.21-.79,.31-1.37,.31h-1.26c-.58,0-.97-.07-1.18-.21-.19-.14-.29-.44-.29-.89v-8.99c0-.63,.08-1.03,.25-1.2,.17-.18,.44-.28,.81-.29v-.44h-5.51v.44c.53,.01,.88,.11,1.06,.29,.19,.17,.29,.57,.29,1.2v8.99c0,.63-.08,1.03-.25,1.2-.17,.17-.44,.26-.81,.29v.44h9.57l.15-3.19h-.44c-.04,.43-.14,.82-.29,1.18Z"/><path class="cls-1" d="M149.78,53.74c.57,.02,.96,.16,1.18,.43,.22,.27,.33,.62,.33,1.06v6.38h-.04l-7.7-6.96c-.28-.27-.53-.51-.75-.7-.22-.2-.43-.42-.62-.66h-2.32v.44c.52,.01,.88,.11,1.06,.29,.19,.17,.29,.57,.29,1.2v8.99c0,.43-.08,.79-.25,1.06-.17,.26-.44,.4-.81,.43v.44h3.58v-.44c-.55-.03-.95-.17-1.18-.43-.22-.27-.33-.62-.33-1.06v-6.38h.04l7.62,6.96c.46,.4,.78,.7,.99,.91,.21,.19,.41,.39,.6,.6h.87c0-.36-.03-.71-.04-1.03v-10.04c0-.43,.08-.79,.25-1.06,.17-.28,.44-.42,.81-.43v-.44h-3.58v.44Z"/><path class="cls-1" d="M113.69,64.15l-3.21-5.03v-.04c.47-.12,.91-.32,1.31-.6,.42-.29,.75-.65,.99-1.08,.26-.42,.39-.87,.39-1.41s-.16-1.02-.5-1.45c-.32-.43-.86-.76-1.62-.99-.75-.25-1.76-.37-3.04-.37-.55,0-1.22,.02-2.01,.06-.79,.03-1.66,.04-2.63,.04h-1.35v.44c.53,.01,.88,.11,1.06,.29,.19,.17,.29,.57,.29,1.2v8.99c0,.63-.08,1.03-.25,1.2s-.44,.26-.81,.29v.44h5.51v-.44c-.51-.03-.87-.12-1.06-.29s-.29-.57-.29-1.2v-8.99c0-.51,.08-.83,.25-.97,.18-.15,.48-.23,.91-.23,.57,0,1.07,.2,1.51,.6,.44,.39,.66,.97,.66,1.76,0,.41-.08,.81-.25,1.2-.17,.38-.46,.7-.89,.95-.43,.25-1.03,.41-1.8,.46v.68c.14,.02,.27,.05,.37,.1,.11,.06,.22,.19,.35,.41l2.71,4.22c.24,.37,.51,.72,.79,1.02,.28,.3,.63,.55,1.04,.73,.41,.19,.9,.29,1.48,.29,.33,0,.66-.03,1.01-.08,.36-.05,.67-.12,.93-.21v-.44c-.24,0-.52-.11-.83-.33-.3-.22-.65-.63-1.02-1.22Z"/><path class="cls-1" d="M138.58,65.18c-.11-.21-.26-.53-.44-.97l-.03,.02-3.71-9.4c-.13-.34-.25-.67-.37-.99-.12-.33-.22-.65-.31-.99h-1.12c-.09,.34-.19,.67-.31,.99-.11,.33-.23,.65-.37,.99l-3.71,9.4c-.17,.43-.35,.79-.56,1.06-.2,.26-.44,.4-.72,.43v.44h3.52v-.44c-.57-.02-.95-.17-1.14-.44s-.21-.61-.04-1.04l.7-1.78c.11-.25,.23-.42,.37-.48,.14-.07,.35-.1,.62-.1h2.19c.15,0,.27,0,.39-.02,.13-.03,.23-.08,.31-.14l.97,2.51c.16,.39,.2,.74,.14,1.02-.05,.28-.33,.43-.85,.46v.44h5.4v-.44c-.2-.03-.38-.07-.52-.12-.15-.07-.28-.2-.41-.41Zm-5.16-4.24c-.05,.05-.17,.08-.35,.08h-2.01c-.12-.01-.22,0-.31,.01-.09,0-.17,.02-.23,.06l1.51-3.85h.04l1.33,3.31c.08,.2,.08,.33,.02,.39Z"/><path class="cls-1" d="M125.4,63.73c-.39,.56-.86,1.02-1.41,1.37-.56,.33-1.18,.5-1.86,.5-.84,0-1.53-.28-2.07-.83-.53-.57-.92-1.33-1.18-2.3-.25-.97-.37-2.04-.37-3.23,0-3.61,1.24-5.41,3.73-5.41,.49,0,.95,.08,1.39,.25,.45,.17,.86,.46,1.22,.89,.36,.41,.67,1.01,.93,1.8h.44v-3.06c-.41-.19-.96-.36-1.66-.5s-1.43-.21-2.19-.21c-1,0-1.95,.16-2.84,.48-.88,.31-1.66,.76-2.34,1.37-.67,.61-1.2,1.34-1.59,2.19-.39,.84-.58,1.79-.58,2.86,0,1.3,.3,2.45,.89,3.44,.6,.98,1.42,1.74,2.46,2.28,1.05,.54,2.25,.81,3.6,.81,1.07,0,2-.14,2.77-.44,.78-.31,1.37-.7,1.8-1.16l.15-2.94h-.44c-.17,.66-.45,1.27-.85,1.84Z"/><path class="cls-1" d="M170.38,64.22v-8.99c0-.63,.08-1.03,.25-1.2,.17-.18,.44-.28,.81-.29v-.44h-5.51v.44c.52,.01,.88,.11,1.06,.29,.19,.17,.29,.57,.29,1.2v8.99c0,.63-.08,1.03-.25,1.2s-.44,.26-.81,.29v.44h5.51v-.44c-.51-.03-.87-.12-1.06-.29-.19-.17-.29-.57-.29-1.2Z"/><path class="cls-1" d="M154.12,56.48h.44c.08-.69,.28-1.26,.62-1.7,.35-.44,.91-.66,1.7-.66h1.2v10.09c0,.63-.08,1.03-.25,1.2-.17,.17-.44,.26-.81,.29v.44h5.51v-.44c-.51-.03-.87-.12-1.06-.29-.19-.17-.29-.57-.29-1.2v-10.09h1.18c.81,0,1.38,.22,1.72,.66,.34,.44,.54,1,.62,1.7h.44v-3.19h-11.02v3.19Z"/><path class="cls-1" d="M116.45,6c.25,.54,.38,1.44,.38,2.7V30.49c0,2.96,.77,5.3,2.32,7.03,1.59,1.69,3.93,2.54,7.03,2.54h-.01c3.28-.01,6.06-.97,8.33-2.88,2.31-1.91,4.16-4.56,5.57-7.95h.11v4.6c0,1.4,.05,2.52,.16,3.35,.11,.79,.27,1.47,.49,2.05h7.68v-1.24c-1.05-.03-1.88-.14-2.49-.32-.57-.18-.99-.54-1.24-1.08-.21-.57-.32-1.47-.32-2.7V8.7c0-1.26,.1-2.16,.32-2.7,.25-.58,.65-.96,1.19-1.14,.54-.18,1.3-.28,2.27-.32v-1.24h-13.19v1.24c1.41,.03,2.47,.14,3.19,.32,.75,.18,1.26,.56,1.51,1.14,.25,.54,.38,1.44,.38,2.7v13.13c0,2.05-.35,3.96-1.03,5.73-.65,1.76-1.57,3.33-2.76,4.7-1.15,1.34-2.49,2.38-4,3.14s-3.12,1.14-4.81,1.14c-2.31,0-3.91-.68-4.81-2.05-.87-1.4-1.3-3.15-1.3-5.24V8.7c0-1.26,.1-2.16,.32-2.7,.25-.58,.65-.96,1.19-1.14,.54-.18,1.3-.28,2.27-.32v-1.24h-13.03v1.24c1.27,.03,2.22,.14,2.87,.32,.69,.18,1.16,.56,1.41,1.14Z"/><path class="cls-1" d="M156.53,6c.29,.54,.43,1.44,.43,2.7v25.15c0,1.22-.1,2.12-.32,2.7-.22,.58-.61,.96-1.19,1.14-.54,.18-1.3,.28-2.27,.32v1.26h15.19c3.39,0,6.13-.56,8.22-1.68,2.13-1.12,3.68-2.54,4.65-4.27,1.01-1.77,1.51-3.55,1.51-5.46s-.5-3.54-1.51-4.87c-1.01-1.33-2.38-2.36-4.11-3.08-1.7-.76-3.64-1.19-5.84-1.3v-.11c2.09-.76,3.86-1.78,5.3-3.08,1.44-1.29,2.16-3.11,2.16-5.24s-.88-3.84-2.65-5.14c-1.77-1.33-4.56-2-8.38-2-1.26,0-2.38,.01-3.35,.05-.94,.03-1.96,.09-3.08,.16-1.11,.03-2.55,.05-4.32,.05h-5.14v1.24c1.44,.03,2.52,.14,3.24,.32,.72,.18,1.21,.56,1.46,1.14Zm15.75,15.04c1.69,.5,3.03,1.35,4,2.54,1.01,1.15,1.51,2.72,1.51,4.7,0,1.37-.29,2.75-.87,4.16-.58,1.37-1.59,2.52-3.03,3.46-1.41,.94-3.39,1.41-5.95,1.41-1.69,0-3-.08-3.93-.22-.9-.15-1.53-.45-1.89-.92-.36-.5-.54-1.27-.54-2.32v-10.43c0-1.23,.4-2.06,1.19-2.49,.83-.47,2.12-.7,3.89-.7,2.09,0,3.96,.27,5.62,.81Zm-10.72-1.8V8.7c0-1.7,.35-2.74,1.03-3.14,.68-.39,1.8-.59,3.35-.59,1.27,0,2.49,.14,3.68,.43s2.18,.85,2.97,1.68c.79,.82,1.19,2.09,1.19,3.78,0,1.48-.29,2.71-.87,3.68-.58,.94-1.33,1.68-2.27,2.22-.9,.54-1.91,.94-3.03,1.19-1.08,.22-2.16,.38-3.24,.49-.57,.04-1.08,.11-1.51,.22-.4,.07-.83,.27-1.3,.59h0Z"/><path class="cls-1" d="M85.83,37.99c-1.41-.03-2.47-.14-3.19-.32-.72-.18-1.22-.56-1.51-1.14-.25-.57-.38-1.47-.38-2.7v-11.89c0-.93,.19-1.57,.59-1.89,.39-.33,1.08-.49,2.05-.49h14.27c.54,0,1.03-.04,1.46-.11,.43-.08,.79-.24,1.08-.49v14.87c0,1.22-.1,2.12-.32,2.7-.22,.58-.61,.96-1.19,1.14-.54,.18-1.3,.28-2.27,.32v1.24h13.46v-1.24c-1.4-.03-2.48-.14-3.24-.32-.72-.18-1.21-.56-1.46-1.14-.25-.57-.38-1.47-.38-2.7V8.69c0-1.26,.1-2.16,.32-2.7,.25-.58,.65-.96,1.19-1.14s1.3-.28,2.27-.32v-1.24h-13.52v1.24c1.44,.03,2.52,.14,3.24,.32,.72,.18,1.21,.56,1.46,1.14,.29,.54,.43,1.44,.43,2.7v6.49c0,.98-.19,1.63-.59,1.95-.39,.33-1.08,.49-2.05,.49h-14.27c-.57,0-1.08,.04-1.51,.11-.4,.07-.74,.21-1.03,.43V8.7c0-1.26,.1-2.16,.32-2.7,.25-.58,.65-.96,1.19-1.14s1.3-.28,2.27-.32v-1.24h-13.52v1.24c1.44,.03,2.52,.14,3.24,.32,.72,.18,1.21,.56,1.46,1.14,.29,.54,.43,1.44,.43,2.7v25.15c0,1.22-.1,2.12-.32,2.7-.22,.58-.61,.96-1.19,1.14-.54,.18-1.3,.28-2.27,.32v1.24l.02-.02h13.46v-1.24Z"/><path class="cls-1" d="M51.97,19.27c-4.1-.06-5.99,3.37-5.7,6.54-6.63,2.92-12.21,7.79-15.98,13.91V11.64C36.46,10.31,35.98-.1,28.85,0c-7.12-.1-7.6,10.31-1.45,11.64v28.04c-3.78-6.1-9.36-10.96-15.97-13.87,.3-3.17-1.6-6.59-5.7-6.54-7.64-.11-7.64,11.89,0,11.78,2.28,.03,3.88-1.02,4.8-2.5,7.62,3.43,13.7,9.72,16.86,17.48v15.87h2.89v-15.8c3.15-7.79,9.25-14.11,16.89-17.55,.92,1.48,2.51,2.53,4.8,2.5,7.64,.11,7.64-11.89,0-11.78ZM5.74,28.16c-3.88,.05-3.88-6.04,0-5.99,3.88-.05,3.88,6.04,0,5.99Zm46.23,0c-3.88,.05-3.88-6.04,0-5.99,3.88-.05,3.88,6.04,0,5.99Z"/><rect class="cls-1" x="19.83" y="67.82" width="17.91" height=".95"/></g></g></svg>