<svg width="15" height="14" viewBox="0 0 15 14" fill="none" xmlns="http://www.w3.org/2000/svg">
<path d="M7.29398 0.398135C7.38379 0.121742 7.77481 0.121742 7.86461 0.398135L9.32586 4.89538C9.36602 5.01899 9.48121 5.10268 9.61118 5.10268H14.3399C14.6305 5.10268 14.7513 5.47456 14.5162 5.64538L10.6906 8.42483C10.5855 8.50123 10.5415 8.63664 10.5816 8.76024L12.0429 13.2575C12.1327 13.5339 11.8163 13.7637 11.5812 13.5929L7.75563 10.8134C7.65049 10.7371 7.50811 10.7371 7.40296 10.8134L3.57737 13.5929C3.34226 13.7637 3.02592 13.5339 3.11572 13.2575L4.57697 8.76024C4.61713 8.63664 4.57313 8.50123 4.46798 8.42483L0.642399 5.64538C0.407285 5.47456 0.528117 5.10268 0.818734 5.10268H5.54742C5.67739 5.10268 5.79257 5.01899 5.83274 4.89538L7.29398 0.398135Z" fill="#133419"/>
</svg>
